<?xml version="1.0" standalone="no"?>
<!DOCTYPE svg PUBLIC "-//W3C//DTD SVG 20010904//EN"
 "http://www.w3.org/TR/2001/REC-SVG-20010904/DTD/svg10.dtd">
<svg version="1.0" xmlns="http://www.w3.org/2000/svg"
 width="500.000000pt" height="500.000000pt" viewBox="0 0 500.000000 500.000000"
 preserveAspectRatio="xMidYMid meet">

<g transform="translate(0.000000,500.000000) scale(0.100000,-0.100000)"
fill="#000000" stroke="none">
<path d="M2746 4136 c-129 -48 -183 -182 -140 -349 30 -118 104 -236 212 -339
84 -81 96 -83 224 -34 118 45 188 89 269 167 143 140 168 289 68 403 -70 79
-181 85 -294 15 -30 -19 -51 -27 -53 -20 -2 6 -21 34 -43 61 -69 87 -164 125
-243 96z m126 -107 c27 -19 88 -99 88 -115 0 -17 45 -54 64 -54 12 0 43 16 70
35 59 42 135 68 170 59 35 -8 74 -56 82 -100 23 -122 -145 -290 -365 -365
l-55 -19 -49 47 c-166 162 -241 379 -167 483 43 60 103 71 162 29z"/>
<path d="M2365 3794 c-16 -9 -44 -30 -61 -46 l-31 -29 -37 22 c-82 48 -153 42
-205 -16 -58 -67 -61 -148 -7 -234 55 -86 227 -211 291 -211 49 0 185 131 232
224 34 68 42 159 18 210 -37 77 -134 116 -200 80z m100 -99 c32 -31 32 -74 0
-143 -26 -56 -115 -157 -146 -167 -39 -13 -189 99 -225 167 -19 36 -18 87 3
110 27 30 66 22 126 -28 46 -38 75 -32 132 31 28 30 59 55 69 55 9 0 28 -11
41 -25z"/>
<path d="M1584 3195 c-264 -48 -480 -160 -651 -336 -128 -131 -187 -221 -252
-381 -64 -156 -84 -266 -85 -453 0 -140 4 -174 27 -268 32 -130 107 -301 172
-394 65 -92 214 -238 305 -300 209 -141 424 -206 675 -206 252 0 471 68 668
209 26 19 51 34 57 34 5 0 37 -20 72 -44 333 -232 805 -266 1172 -84 329 162
562 469 641 843 23 108 24 333 1 435 -91 413 -357 734 -730 879 -152 59 -244
76 -421 76 -254 0 -448 -57 -658 -194 l-77 -51 -77 51 c-207 135 -423 200
-658 198 -60 -1 -142 -7 -181 -14z m339 -90 c429 -65 780 -379 894 -800 25
-91 27 -116 27 -275 0 -158 -3 -185 -27 -275 -25 -94 -104 -270 -147 -325
l-19 -25 -26 25 c-15 14 -36 37 -46 52 l-20 27 50 103 c81 166 96 234 96 423
0 140 -3 169 -24 235 -87 281 -235 466 -474 599 -135 74 -348 120 -501 106
-419 -36 -748 -312 -853 -715 -30 -117 -35 -311 -9 -426 36 -165 115 -318 226
-437 92 -98 172 -158 284 -212 151 -73 232 -90 426 -89 150 0 173 3 253 27 94
29 186 72 253 118 l41 28 46 -47 c26 -26 47 -51 47 -54 0 -22 -200 -131 -305
-166 -215 -72 -476 -72 -691 2 -318 108 -576 362 -679 670 -59 176 -73 401
-35 584 68 336 306 628 622 764 204 88 387 114 591 83z m1522 -10 c398 -82
728 -396 832 -793 37 -142 43 -339 13 -481 -89 -436 -419 -766 -854 -856 -101
-20 -295 -21 -402 0 -414 79 -746 383 -850 781 -21 78 -28 131 -31 249 -6 162
8 270 49 389 38 110 122 266 144 266 7 0 30 -21 52 -47 l39 -47 -48 -98 c-84
-167 -116 -342 -98 -522 11 -108 21 -147 61 -251 51 -130 105 -212 208 -315
134 -134 265 -209 450 -256 59 -15 109 -19 235 -18 144 0 169 3 248 27 262 80
465 254 582 499 65 136 87 227 93 389 4 124 2 145 -22 239 -101 392 -416 673
-806 721 -210 25 -447 -33 -643 -158 l-27 -18 -47 47 c-40 41 -45 49 -33 63
38 46 248 146 376 179 148 38 326 42 479 11z m-1425 -250 c94 -30 121 -43 197
-91 l52 -33 -47 -78 c-150 -249 -205 -567 -147 -848 29 -136 95 -301 160 -398
l35 -52 -22 -19 c-37 -30 -197 -102 -273 -122 -97 -26 -312 -26 -410 -1 -96
26 -258 106 -330 164 -162 132 -272 322 -305 526 -16 95 -8 278 15 362 66 248
269 473 510 566 129 50 184 59 340 55 119 -3 153 -7 225 -31z m1470 -3 c205
-67 375 -210 485 -406 139 -249 139 -563 0 -811 -117 -210 -308 -359 -540
-421 -97 -26 -312 -26 -410 0 -77 20 -236 92 -274 123 l-25 20 32 49 c94 147
162 344 183 530 26 227 -37 497 -163 708 -27 43 -48 82 -48 85 0 8 86 62 130
82 49 22 158 58 211 69 24 5 107 8 184 6 125 -3 150 -7 235 -34z m-952 -449
c58 -127 76 -213 76 -363 0 -147 -12 -208 -65 -337 -44 -106 -53 -109 -88 -32
-63 140 -76 200 -76 369 0 131 4 167 23 233 23 82 76 197 91 197 4 0 22 -30
39 -67z"/>
</g>
</svg>
