<?xml version="1.0" standalone="no"?>
<!DOCTYPE svg PUBLIC "-//W3C//DTD SVG 20010904//EN"
 "http://www.w3.org/TR/2001/REC-SVG-20010904/DTD/svg10.dtd">
<svg version="1.0" xmlns="http://www.w3.org/2000/svg"
 width="1024.000000pt" height="1024.000000pt" viewBox="0 0 1024.000000 1024.000000"
 preserveAspectRatio="xMidYMid meet">

<g transform="translate(0.000000,1024.000000) scale(0.100000,-0.100000)"
fill="#000000" stroke="none">
<path d="M6020 7043 c-211 -12 -471 -54 -655 -104 -383 -106 -639 -267 -737
-466 l-33 -68 -3 -431 -3 -432 -282 -5 c-300 -5 -441 -19 -650 -63 -509 -107
-866 -350 -917 -623 -13 -71 -13 -1250 0 -1322 42 -229 290 -445 660 -574 607
-211 1468 -198 2055 32 248 97 453 257 526 409 l33 69 335 0 c297 1 353 4 481
23 464 72 798 213 998 422 69 72 129 191 142 285 12 91 13 2067 0 2154 -44
307 -463 558 -1095 656 -259 40 -583 54 -855 38z m536 -293 c491 -40 875 -161
1046 -330 74 -74 89 -112 68 -176 -44 -133 -307 -276 -660 -358 -463 -108
-1047 -102 -1505 14 -297 75 -513 186 -592 304 -62 91 -36 164 91 260 280 211
948 334 1552 286z m-1603 -954 c201 -114 501 -203 857 -253 179 -25 757 -25
945 0 356 48 614 124 827 243 53 30 98 54 101 54 3 0 4 -57 3 -127 -1 -123 -2
-130 -32 -183 -98 -174 -423 -308 -897 -372 -198 -27 -622 -31 -802 -9 -107
13 -112 15 -191 67 -188 125 -451 221 -759 277 l-130 24 -3 161 c-1 89 -1 162
1 162 2 0 38 -20 80 -44z m-133 -571 c363 -51 699 -170 829 -295 54 -51 91
-117 91 -160 0 -151 -289 -324 -690 -414 -230 -51 -340 -61 -675 -61 -325 1
-425 9 -643 56 -373 81 -670 249 -698 396 -14 77 65 187 189 261 183 110 495
198 822 231 139 15 639 6 775 -14z m2867 -198 c-3 -103 -8 -132 -26 -169 -94
-195 -529 -363 -1056 -408 -138 -11 -545 -13 -560 -2 -6 4 -10 84 -10 202 l0
195 290 0 c576 1 975 83 1280 264 38 22 73 41 77 41 5 0 7 -56 5 -123z m-7
-694 c-6 -160 -13 -179 -108 -263 -170 -151 -547 -270 -982 -310 -127 -11
-452 -12 -515 -2 l-40 7 0 191 0 192 310 5 c408 6 648 39 917 123 109 35 290
116 373 167 22 14 42 26 45 26 3 1 3 -61 0 -136z m-4584 -55 c510 -310 1545
-376 2249 -143 141 46 219 81 333 145 l72 41 0 -99 c0 -85 -3 -105 -26 -150
-68 -136 -300 -268 -610 -346 -598 -152 -1362 -97 -1804 130 -143 73 -220 137
-259 215 -28 56 -31 71 -31 156 0 51 2 93 4 93 2 0 35 -19 72 -42z m159 -718
c321 -151 724 -219 1224 -207 498 12 894 104 1186 276 l85 50 0 -32 c0 -189
-231 -357 -638 -462 -410 -107 -983 -113 -1399 -15 -224 53 -448 149 -563 243
-80 66 -130 152 -130 227 l0 49 68 -41 c37 -23 112 -63 167 -88z"/>
<path d="M6204 6661 c-41 -25 -64 -77 -64 -144 l0 -56 -191 -3 -191 -3 -34
-37 c-29 -33 -34 -45 -34 -88 0 -68 22 -107 73 -131 36 -16 67 -19 210 -19
l167 0 0 -84 c0 -70 4 -88 23 -117 60 -90 181 -88 237 4 16 25 20 50 20 115
l0 82 158 0 c86 0 173 5 193 10 112 31 135 190 36 250 -29 18 -51 20 -209 20
l-178 0 0 60 c0 72 -19 113 -63 140 -41 26 -112 26 -153 1z"/>
<path d="M4337 5146 c-70 -25 -97 -66 -97 -146 l0 -50 -167 0 c-150 0 -172 -2
-201 -20 -87 -53 -95 -157 -17 -230 26 -24 30 -25 206 -28 l179 -3 0 -75 c0
-42 6 -90 14 -109 40 -94 192 -102 246 -12 16 25 20 50 20 115 l0 82 168 0
c148 0 171 2 199 20 89 54 85 196 -7 242 -29 15 -63 18 -197 18 l-163 0 0 53
c0 110 -86 177 -183 143z"/>
</g>
</svg>
