<?xml version="1.0" standalone="no"?>
<!DOCTYPE svg PUBLIC "-//W3C//DTD SVG 20010904//EN"
 "http://www.w3.org/TR/2001/REC-SVG-20010904/DTD/svg10.dtd">
<svg version="1.0" xmlns="http://www.w3.org/2000/svg"
 width="980.000000pt" height="980.000000pt" viewBox="0 0 980.000000 980.000000"
 preserveAspectRatio="xMidYMid meet">

<g transform="translate(0.000000,980.000000) scale(0.100000,-0.100000)"
fill="#000000" stroke="none">
<path d="M3143 7335 c-219 -59 -405 -259 -444 -476 -10 -57 -10 -274 -1 -1113
7 -572 14 -1095 17 -1161 2 -66 7 -406 11 -755 6 -628 6 -636 -15 -704 -15
-47 -21 -95 -21 -155 0 -154 50 -271 162 -376 73 -69 130 -103 217 -129 49
-14 231 -16 1848 -16 1205 0 1800 3 1813 10 54 29 68 118 26 167 l-24 28
-1794 5 -1793 5 -50 23 c-139 64 -216 218 -180 357 26 97 83 167 170 207 l50
23 1793 5 1794 5 29 33 29 32 0 961 0 961 -29 29 c-39 39 -106 41 -148 5 l-28
-24 -5 -889 -5 -888 -1437 -3 -1438 -2 0 1820 0 1820 588 0 c653 0 619 -3 649
67 18 43 4 93 -34 123 -25 20 -38 20 -862 19 -685 0 -845 -3 -888 -14z m325
-2017 l2 -1818 -158 0 c-163 0 -230 -10 -319 -50 l-43 -19 -1 142 c0 78 -2
167 -4 197 -7 107 -30 2132 -30 2600 l0 475 27 57 c36 78 108 152 183 189 76
37 133 47 250 45 l90 -1 3 -1817z"/>
<path d="M5532 7240 c-100 -27 -165 -64 -238 -135 -109 -106 -160 -242 -151
-400 10 -179 57 -255 292 -465 94 -84 188 -169 210 -189 110 -100 346 -311
389 -349 66 -57 111 -58 177 -4 70 56 750 669 783 706 15 17 47 69 69 115 38
78 41 90 45 192 4 94 1 119 -18 180 -77 238 -321 396 -560 361 -113 -16 -177
-45 -297 -131 l-108 -79 -45 34 c-173 131 -260 171 -396 179 -60 4 -97 0 -152
-15z m215 -215 c35 -10 96 -48 190 -117 132 -98 140 -103 188 -103 48 0 56 5
188 103 157 115 212 138 305 129 114 -12 223 -96 258 -199 23 -71 16 -179 -16
-240 -19 -35 -95 -110 -300 -294 -151 -136 -309 -278 -350 -316 -41 -37 -79
-68 -85 -68 -5 1 -39 28 -75 60 -36 33 -192 174 -347 312 -246 221 -286 261
-313 312 -25 50 -30 71 -30 130 0 207 190 349 387 291z"/>
<path d="M4989 5921 l-29 -29 0 -181 0 -181 -144 0 c-140 0 -145 -1 -175 -26
-39 -33 -50 -83 -27 -131 25 -52 63 -63 216 -63 l130 0 0 -440 0 -440 29 -32
c25 -28 36 -33 76 -33 40 0 51 5 76 33 21 23 29 43 29 70 0 20 1 217 3 437 l2
400 140 5 c156 6 182 14 205 69 18 44 5 95 -31 125 -30 25 -35 26 -169 26
-122 0 -139 2 -145 18 -3 9 -6 73 -5 142 2 204 3 198 -29 231 -24 24 -38 29
-76 29 -38 0 -52 -5 -76 -29z"/>
</g>
</svg>
