<?xml version="1.0" standalone="no"?>
<!DOCTYPE svg PUBLIC "-//W3C//DTD SVG 20010904//EN"
 "http://www.w3.org/TR/2001/REC-SVG-20010904/DTD/svg10.dtd">
<svg version="1.0" xmlns="http://www.w3.org/2000/svg"
 width="512.000000pt" height="512.000000pt" viewBox="0 0 512.000000 512.000000"
 preserveAspectRatio="xMidYMid meet">

<g transform="translate(0.000000,512.000000) scale(0.100000,-0.100000)"
fill="#000000" stroke="none">
<path d="M2180 4614 c-377 -26 -809 -95 -1147 -185 l-112 -30 -119 60 c-176
88 -229 104 -332 99 -69 -3 -98 -10 -152 -35 -158 -74 -259 -225 -259 -389 0
-97 12 -135 87 -285 l63 -127 -25 -74 c-237 -692 -243 -1431 -18 -2110 l45
-137 -65 -128 c-75 -152 -87 -190 -87 -287 0 -164 101 -315 259 -389 54 -25
83 -32 152 -35 105 -5 165 13 327 99 l112 59 203 -49 c302 -73 524 -111 858
-148 237 -26 942 -26 1180 0 337 37 629 89 913 162 l135 35 140 -68 c77 -38
168 -75 202 -82 176 -37 356 40 456 196 49 76 67 151 62 255 -4 86 -6 92 -76
233 l-71 145 25 73 c237 692 243 1431 18 2110 l-45 137 65 128 c75 152 87 190
87 287 0 164 -101 315 -259 389 -54 25 -83 32 -152 35 -105 5 -166 -13 -327
-99 l-111 -59 -204 49 c-297 72 -522 111 -848 147 -138 15 -831 28 -980 18z
m960 -354 c329 -35 582 -81 910 -166 208 -54 183 -58 407 57 170 88 194 93
241 46 47 -48 42 -76 -52 -265 -58 -116 -86 -184 -86 -207 0 -19 16 -76 35
-127 131 -352 186 -659 186 -1038 0 -371 -50 -659 -176 -1015 -25 -71 -45
-144 -45 -162 0 -21 31 -93 86 -203 93 -186 99 -214 51 -257 -48 -45 -70 -40
-253 50 -93 47 -184 88 -202 91 -22 5 -69 -3 -161 -28 -327 -89 -610 -141
-996 -183 -225 -24 -823 -24 -1050 0 -362 39 -608 82 -925 163 -127 32 -225
52 -240 49 -14 -3 -102 -44 -196 -92 -184 -93 -197 -95 -249 -50 -51 44 -46
74 49 265 57 115 86 184 86 207 0 18 -14 71 -31 117 -136 367 -190 665 -190
1048 0 370 50 661 176 1015 25 71 45 144 45 162 0 21 -31 93 -86 203 -94 187
-99 213 -51 258 47 44 69 40 252 -51 94 -46 185 -88 203 -91 22 -5 69 3 161
28 388 106 814 176 1221 200 172 10 692 -4 880 -24z"/>
<path d="M1934 3550 c-221 -30 -406 -164 -513 -370 -131 -250 -114 -548 43
-788 56 -87 172 -218 277 -313 106 -96 722 -604 751 -620 31 -17 108 -15 143
3 28 15 183 141 570 464 346 289 494 471 562 689 29 94 26 325 -5 425 -81 256
-261 434 -502 497 -86 22 -244 21 -329 -1 -121 -32 -264 -121 -332 -206 l-32
-39 -82 77 c-154 146 -348 210 -551 182z m208 -350 c102 -38 189 -137 249
-282 44 -108 90 -148 169 -148 42 0 107 27 129 53 7 9 27 51 45 95 55 132 127
220 221 270 43 23 62 27 140 27 82 0 97 -3 157 -33 169 -83 246 -295 181 -496
-49 -153 -157 -268 -579 -616 -143 -117 -266 -219 -275 -227 -14 -12 -45 11
-260 187 -468 385 -585 510 -634 672 -38 129 -4 296 81 397 89 106 249 149
376 101z"/>
</g>
</svg>
