<?xml version="1.0" encoding="utf-8"?>
<!-- Designed by Vexels.com - 2020 All Rights Reserved - https://vexels.com/terms-and-conditions/  -->
<svg version="1.1" id="Capa_1" xmlns="http://www.w3.org/2000/svg" xmlns:xlink="http://www.w3.org/1999/xlink" x="0px" y="0px"
	 viewBox="0 0 1200 1200" enable-background="new 0 0 1200 1200" xml:space="preserve">
<g>
	<path fill="#211548" d="M998.684,1026.899c-12.36-72.386-27.183-144.305-45.602-215.402
		c-33.256-128.364-78.401-253.629-138.823-371.79c-31.62-61.835-66.15-126.449-111.161-179.876c-0.002-0.25,0.052-0.473,0.02-0.735
		c-2.666-22.578-1.143-44.742,5.723-66.504c5.104-16.178,11.473-31.907,15.678-48.373c6.689-26.195,8.692-57.687-11.554-78.845
		c-30.125-31.479-84.183-8.516-110.283,19.146c-26.253-27.233-79.802-51.352-110.188-19.022
		c-20.066,21.35-18.222,52.328-11.525,78.649c4.028,15.828,9.989,31.018,15.047,46.52c3.001,9.2,5.008,18.461,6.193,27.792
		c-19.954,7.946-34.925,24.743-47.851,41.536c-5.548,7.209-10.979,14.48-16.409,21.742c-39.614,23.038-80.791,34.416-127.075,34.645
		c-6.228,0.031-8.209,7.07-4.716,11.387c6.396,7.906,16.284,17.229,26.93,20.831c-8.109,6.245-17.294,10.695-27.095,14.286
		c-7.833,2.87-4.706,15.25,3.5,12.696c0.216-0.067,0.424-0.162,0.64-0.231c12.538,2.399,26.722,3.953,40.137,2.474
		c-27.752,22.546-58.451,40.761-93.208,53.649c-5.21,1.931-8.851,9.466-3.632,13.756c8.36,6.871,20.723,12.707,32.272,12.633
		c-4.76,6.902-10.182,13.387-16.484,18.517c-6.29,5.121,0.851,12.945,7.014,12.049c35.64-5.179,67.253-21.903,94.626-44.85
		c11.259-9.438,21.749-19.73,32.132-30.114c-29.983,54.251-56.692,110.281-80.246,167.611
		c-53.936,131.278-89.8,269.243-114.88,408.743c-3.568,19.848-9.187,40.838-10.781,60.87c-1.01,12.706,8.279,21.544,20.211,23.417
		c17.272,2.713,36.926,0.1,54.317-0.639c13.515-0.575,27.012-1.532,40.435-3.169c-2.544,13.544-4.147,28.635,4.47,37.468
		c14.029,14.38,46.256,6.575,63.714,5.913c27.598-1.045,55.366-1.864,82.895-4.437c-0.881,10.513-0.917,20.75,8.466,28.055
		c12.005,9.346,34.416,7.434,48.867,8.75c21.546,1.962,43.152,3.236,64.781,3.73c42.203,0.964,84.413-1.156,126.253-6.823
		c11.489-1.556,21.266-4.309,25.511-16.189c1.811-5.066,2.228-11.066,1.972-17.36c22.792,2.011,45.709,2.745,68.554,3.761
		c12.386,0.551,24.778,0.935,37.166,1.426c9.848,0.391,20.767,2.117,30.198-1.517c17.529-6.757,14.807-23.669,12.803-39.174
		c-0.16-1.235-0.349-2.467-0.511-3.701c27.023,3.383,54.366,3.989,81.569,4.265c10.332,0.105,21.797,0.699,29.276-7.877
		C1007.572,1055.642,1000.8,1039.301,998.684,1026.899z M518.653,249.098c0.4-7.601,0.242-15.02-0.395-22.329
		c11.096-0.018,22.365-2.982,33.308-4.256c15.317-1.782,30.762-2.879,46.184-3.058c14.803-0.171,29.634,0.543,44.339,2.28
		c14.467,1.708,29.751,7.234,44.462,8.283c-0.434,6.487-0.46,13.084-0.059,19.835c-28.39-4.255-56.918-8.59-85.621-9.381
		C573.088,239.705,545.694,243.185,518.653,249.098z M496.519,85.392c19.176-39.299,71.322-15.748,96.413,7.016
		c-9.538,8.137-18.392,19.778-19.445,31.818c-0.305,3.489,4.439,5.037,6.697,2.774c4.411-4.424,7.054-10.745,10.752-15.812
		c3.286-4.501,6.934-8.492,11.255-11.906c3.867,3.665,7.38,7.744,10.475,12.046c3.7,5.145,6.338,11.159,10.261,16.055
		c1.977,2.467,7.009,1.227,7.46-1.97c1.768-12.498-9.595-25.735-20.327-33.339c26.952-20.066,78.939-46.43,98.399-6.513
		c12.738,26.127,1.104,57.057-7.766,82.555c-5.563,15.991-10.033,31.397-12.475,47.131c-11.984-4.698-26.276-5.884-38.476-7.56
		c-16.325-2.241-32.779-3.315-49.256-3.234c-16.375,0.081-32.683,1.328-48.921,3.404c-11.219,1.434-23.92,2.084-34.918,5.953
		c-2.365-14.505-6.458-28.771-11.612-43.441C495.85,144.222,483.405,112.266,496.519,85.392z M332.142,363.703
		c5.942-4.437,11.358-9.586,15.966-15.117c0.683-0.82,1.043-1.698,1.183-2.569c0.403-1.447,0.135-3.057-1.246-4.446
		c-5.074-5.098-11.323-8.735-17.559-12.518c15.561-0.586,30.949-1.624,46.395-5.388c14.333-3.493,27.978-8.793,40.919-15.495
		c-5.81,7.384-11.756,14.671-18.005,21.754c-9.522,10.794-19.404,20.999-29.683,30.596
		C357.34,361.396,344.82,362.967,332.142,363.703z M366.225,426.585c-21.75,19.08-45.285,32.315-71.654,41.397
		c3.286-5.218,6.137-10.741,8.699-16.539c0.236-0.209,0.489-0.376,0.721-0.597c4.17-3.981,0.865-10.839-4.559-11.007
		c-6.712-0.208-12.404,0.812-17.893,0.571c44.485-17.743,83.519-49.487,115.891-83.986c18.504-19.719,35.189-41.078,50.846-63.105
		c15.042-21.163,31.013-49.448,55.014-62.264c0.413,9.265,0.055,18.603-1.088,28.041c-0.025,0.211,0.024,0.397,0.02,0.6
		c-26.579,31.529-49.431,66.91-70.506,102.939c-11.915,8.695-21.824,21.811-31.858,31.789
		C388.86,405.361,377.888,416.353,366.225,426.585z M230.81,958.293c13.431-64.986,28.762-129.606,47.413-193.304
		c33.604-114.767,77.886-226.071,134.931-331.245c30.898-56.966,68.108-110.35,99.092-167.148
		c13.929-3.295,27.896-5.976,41.955-7.812c-8.026,13.917-15.326,28.188-21.941,42.884c-8.162,18.133-18.284,38.054-19.851,58.062
		c-0.326,4.167,5.507,5.187,7.478,2.025c11.108-17.813,16.482-39.938,25.11-59.096c6.942-15.414,14.605-30.546,22.736-45.378
		c10.966-0.971,22.002-1.372,33.135-1.056c30.934,0.878,61.606,5.967,92.161,10.493c27.482,50.405,60.009,98.052,87.336,148.637
		c28.49,52.738,54.211,106.942,76.765,162.483c47.804,117.725,81.86,240.305,108.544,364.391
		c4.138,19.245,8.076,38.533,11.836,57.856c1.253,6.438,2.458,12.885,3.672,19.331c-15.234-1.75-30.85-1.68-46.065-2.381
		c-18.611-0.857-37.198-1.599-55.82-1.505c-0.841-5.43-1.635-10.867-2.508-16.291c-16.35-101.662-38.728-202.33-67.558-301.188
		c-15.624-53.572-30.703-111.275-56.94-160.787c-2.875-5.426-10.787-1.575-9.56,4.03c6.377,29.134,17.281,58.031,26.328,86.463
		c8.541,26.84,16.702,53.812,24.469,80.886c16.117,56.183,30.269,112.95,42.509,170.101
		c12.296,57.409,22.602,115.244,30.953,173.357c0.257,1.787,0.499,3.575,0.752,5.363c-21-2.672-42.873-2.017-63.833-2.759
		c-23.364-0.828-47.595-2.943-71.085-1.404c-2.732-30.044-5.661-60.072-8.961-90.059c-9.272-84.257-20.756-168.357-36.88-251.597
		c-2.032-10.493-17.945-6.026-16,4.411c12.254,65.777,21.493,132.073,29.346,198.508c3.929,33.231,7.457,66.511,10.642,99.823
		c1.598,16.704,3.107,33.415,4.533,50.135c0.39,4.573,0.971,9.307,1.573,14.097c-19.723-0.402-39.717,2.009-59.347,2.873
		c-20.89,0.919-41.802,1.292-62.712,1.136c-19.136-0.142-38.246-0.832-57.363-1.665c-17.408-0.758-35.402-2.94-52.976-2.674
		c1.013-12.037,2.02-24.076,3.122-36.105c3.115-34.02,6.459-68.028,10.118-101.994c8.101-75.205,17.295-150.191,29.578-224.84
		c1.155-7.019-9.316-10.194-10.869-2.997c-15.815,73.281-27.306,147.704-36.311,222.111c-4.563,37.701-8.541,75.452-11.959,113.273
		c-0.168,1.869-0.308,3.741-0.475,5.611c-21.268-2.302-43.236-0.503-64.458,0.181c-23.359,0.754-47.501,0.167-70.857,2.87
		c0.203-1.432,0.397-2.866,0.603-4.298c8.357-58.112,18.657-115.947,30.952-173.357c12.24-57.15,26.386-113.921,42.509-170.101
		c7.769-27.073,15.928-54.047,24.469-80.886c9.054-28.452,19.948-57.313,26.328-86.463c1.216-5.552-6.659-9.505-9.56-4.03
		c-23.013,43.428-36.817,93.631-50.933,140.525c-14.806,49.186-28.102,98.833-39.723,148.868
		c-11.661,50.204-21.775,100.767-30.375,151.585c-1.844,10.901-3.589,21.819-5.296,32.742c-15.032-1.555-30.933,0.584-45.727,1.27
		c-18.735,0.869-37.459,1.895-56.188,2.856c0.085-0.415,0.183-0.849,0.259-1.254C223.356,995.302,226.99,976.779,230.81,958.293z
		 M231.411,1059.624c-2.418-0.029-8.109,0.971-10.101-0.186c-6.292-3.657-6.566-11.382-6.637-16.97
		c-0.064-5.111,1.14-10.928,2.48-16.615c19.567,0.266,39.089,0.078,58.663-0.458c14.153-0.387,29.393,0.511,43.752-1.454
		c-1.483,9.822-2.958,19.646-4.331,29.484c-0.214,1.534-0.51,3.2-0.837,4.929C286.862,1060.521,258.976,1059.951,231.411,1059.624z
		 M380.228,1097.024c-12.216,0.241-29.907,4.08-41.529,1.087c-16.308-4.2-9.66-16.393-8.066-27.907
		c0.041-0.299,0.084-0.598,0.126-0.897c24.848,1.599,50.614-0.651,75.34-1.289c20.029-0.517,40.891-0.128,60.841-3.535
		c-0.935,10.75-1.871,21.499-2.734,32.254C436.247,1095.984,408.168,1096.475,380.228,1097.024z M719.399,1113.032
		c-0.773,12.49-8.706,11.438-20.108,12.778c-9.175,1.077-18.374,1.964-27.583,2.696c-19.502,1.552-39.064,2.364-58.626,2.537
		c-36.051,0.319-72.11-1.632-107.954-5.459c-3.995-0.427-8.35-0.338-12.223-1.379c-1.017-0.121-2.034-0.242-3.051-0.363
		c-7.308-1.475-9.975-5.163-8-11.064c-1.096-6.277,1.166-14.905,1.687-21.311c0.034-0.423,0.075-0.845,0.11-1.267
		c35.905,6.664,75.424,5.458,111.368,5.827c39.822,0.409,83.882,2.41,123.413-6.094
		C719.288,1097.771,719.86,1105.598,719.399,1113.032z M861.464,1098.111c-11.44,2.946-29.691-0.854-41.528-1.087
		c-27.34-0.539-54.806-1.012-82.167-0.33c-1.022-7.571-2.362-14.991-2.901-21.23c-0.284-3.29-0.618-6.575-0.909-9.864
		c23.158,1.916,46.814,1.573,69.952,2.495c21.362,0.85,43.918,3.062,65.408,0.599c0.07,0.504,0.143,1.008,0.212,1.512
		C871.123,1081.718,877.774,1093.912,861.464,1098.111z M974.813,1059.561c-13.937,3.01-32.017,0.283-46.259,0.155
		c-14.347-0.128-28.707-0.359-43.016-1.426c-1.418-10.362-2.882-20.717-4.438-31.061c18.006,1.029,36.01,2.096,54.018,3.106
		c15.933,0.892,32.348,2.368,48.334,0.796C985.921,1042.445,990.178,1056.243,974.813,1059.561z"/>
	<path fill="#211548" d="M536.829,595.507c7.18-23.363,8.642-49.198,13.718-73.171c5.156-24.35,11.642-48.357,19.177-72.075
		c2.402-7.562-9.318-10.695-11.827-3.26c-8.274,24.519-15.434,49.379-21.133,74.627c-5.166,22.888-11.907,48.854-10.475,72.453
		C526.652,600.049,535.002,601.454,536.829,595.507z"/>
	<path fill="#211548" d="M683.975,398.717c8.125,23.342,12.417,48.604,22.665,71.078c2.222,4.872,9.789,2.255,9.747-2.64
		c-0.226-26.231-11.349-53.605-20.765-77.707c-9.835-25.174-21.647-49.281-35.171-72.677c-3.535-6.114-12.621-0.714-9.422,5.508
		C663.722,346.977,674.843,372.484,683.975,398.717z"/>
</g>
</svg>
