<?xml version="1.0" standalone="no"?>
<!DOCTYPE svg PUBLIC "-//W3C//DTD SVG 20010904//EN"
 "http://www.w3.org/TR/2001/REC-SVG-20010904/DTD/svg10.dtd">
<svg version="1.0" xmlns="http://www.w3.org/2000/svg"
 width="846.000000pt" height="421.000000pt" viewBox="0 0 846.000000 421.000000"
 preserveAspectRatio="xMidYMid meet">

<g transform="translate(0.000000,421.000000) scale(0.100000,-0.100000)"
fill="#000000" stroke="none">
<path d="M6760 2805 c-69 -19 -148 -53 -226 -95 l-72 -39 -53 15 c-35 9 -103
14 -190 14 -339 1 -726 -142 -1259 -462 -186 -112 -259 -157 -320 -198 -30
-20 -97 -63 -148 -95 l-94 -57 -175 117 c-239 159 -346 223 -558 330 -416 211
-742 309 -1170 351 -392 38 -816 -48 -1065 -216 -300 -203 -411 -520 -288
-820 79 -192 238 -357 459 -477 256 -140 635 -207 971 -173 591 60 1157 297
1783 744 11 8 90 -42 175 -111 8 -7 96 -75 195 -151 250 -191 311 -239 380
-294 63 -50 95 -61 95 -30 0 10 -35 58 -78 107 -144 165 -357 355 -565 505
-42 30 -76 60 -77 65 0 10 91 70 316 206 32 20 97 60 144 89 521 325 849 460
1185 488 102 8 245 6 245 -5 0 -2 -50 -52 -110 -110 -175 -167 -283 -317 -391
-540 -35 -73 -68 -131 -74 -129 -5 1 -18 33 -28 70 -22 87 -68 182 -112 234
-70 81 -185 108 -271 64 -57 -29 -129 -112 -155 -180 -32 -81 -32 -249 0 -342
51 -148 111 -230 348 -477 92 -96 170 -180 172 -185 1 -5 -11 -39 -28 -75 -79
-165 -94 -342 -38 -456 38 -77 82 -110 155 -114 93 -6 149 43 172 150 20 95
-22 244 -111 391 -31 52 -38 70 -30 85 14 25 181 232 261 321 78 88 64 72 175
195 332 365 466 546 521 702 65 186 -10 332 -208 405 -32 11 -58 24 -58 28 0
8 98 46 195 76 92 28 272 25 347 -4 116 -46 204 -160 229 -297 16 -83 5 -244
-21 -325 -96 -296 -380 -625 -757 -879 -65 -43 -93 -67 -93 -81 0 -26 29 -26
77 1 126 69 158 89 248 150 367 249 590 543 651 858 56 297 -83 567 -336 650
-51 17 -86 21 -179 20 -64 -1 -136 -7 -161 -14z m-224 -240 c68 -34 122 -88
150 -153 47 -104 21 -216 -90 -382 -86 -130 -163 -221 -400 -470 -146 -154
-247 -269 -331 -378 -43 -56 -83 -101 -89 -99 -17 5 -178 199 -248 298 -118
167 -199 347 -214 479 -17 147 61 278 169 282 52 2 74 -10 111 -61 67 -91 89
-165 106 -350 6 -69 16 -133 21 -143 12 -23 45 -23 52 0 10 34 59 167 72 197
7 17 21 50 31 75 10 25 40 88 67 140 121 232 259 399 457 553 54 43 71 44 136
12z m-4125 -25 c344 -27 616 -92 968 -232 151 -60 374 -167 496 -238 50 -29
100 -58 111 -64 69 -37 283 -183 284 -193 0 -6 -33 -31 -72 -56 -40 -24 -134
-81 -208 -126 -297 -182 -592 -335 -810 -421 -317 -126 -647 -182 -935 -161
-357 27 -613 127 -817 319 -174 164 -259 366 -228 540 62 355 409 590 930 630
63 5 122 10 131 11 8 0 76 -4 150 -9z m3425 -1628 c16 -11 80 -131 100 -187
21 -61 24 -189 5 -225 -28 -52 -63 -80 -101 -80 -69 0 -110 71 -110 193 0 80
10 122 53 229 33 80 35 83 53 70z"/>
</g>
</svg>
