<?xml version="1.0" standalone="no"?>
<!DOCTYPE svg PUBLIC "-//W3C//DTD SVG 20010904//EN"
 "http://www.w3.org/TR/2001/REC-SVG-20010904/DTD/svg10.dtd">
<svg version="1.0" xmlns="http://www.w3.org/2000/svg"
 width="159.000000pt" height="138.000000pt" viewBox="0 0 159.000000 138.000000"
 preserveAspectRatio="xMidYMid meet">

<g transform="translate(0.000000,138.000000) scale(0.100000,-0.100000)"
fill="#000000" stroke="none">
<path d="M307 1183 c-2 -5 -7 -20 -10 -34 -6 -25 -42 -49 -73 -49 -26 0 -9
-24 23 -32 36 -9 50 -24 55 -58 4 -34 32 -32 36 2 4 30 35 58 64 58 28 0 21
27 -9 35 -38 9 -51 21 -58 56 -6 28 -19 38 -28 22z m23 -99 c0 -17 -22 -14
-28 4 -2 7 3 12 12 12 9 0 16 -7 16 -16z"/>
<path d="M1304 1163 c-9 -39 -21 -51 -55 -58 -39 -9 -37 -20 8 -42 27 -13 39
-27 46 -51 10 -41 27 -37 42 9 8 24 20 37 43 44 47 16 48 23 3 41 -31 12 -43
23 -49 47 -10 40 -30 46 -38 10z m34 -75 c-6 -18 -28 -21 -28 -4 0 9 7 16 16
16 9 0 14 -5 12 -12z"/>
<path d="M923 1082 c-16 -10 -63 -142 -63 -176 0 -15 5 -36 10 -46 8 -14 5
-28 -11 -54 -20 -35 -20 -36 -2 -36 11 0 25 11 33 24 7 15 25 27 44 30 38 8
49 17 110 88 29 35 46 64 43 73 -4 8 -30 28 -59 45 -29 17 -62 37 -73 45 -11
8 -25 11 -32 7z m58 -59 c40 -24 48 -47 12 -38 -29 7 -63 32 -63 47 0 13 19
10 51 -9z m-3 -65 c23 -7 42 -15 42 -18 0 -3 -16 -23 -35 -44 -36 -40 -69 -45
-88 -14 -14 21 9 102 26 94 7 -3 31 -11 55 -18z"/>
<path d="M655 1014 c-11 -8 -46 -29 -77 -46 -32 -17 -58 -35 -58 -39 0 -10
103 -136 132 -161 11 -10 30 -18 42 -18 12 0 32 -14 47 -31 36 -44 58 -30 29
18 -15 25 -18 39 -11 46 18 18 12 70 -14 138 -47 118 -52 122 -90 93z m25 -53
c0 -13 -11 -23 -35 -31 -50 -17 -63 -3 -23 26 41 28 58 30 58 5z m45 -77 c20
-48 19 -67 -4 -88 -24 -22 -47 -11 -90 43 -37 46 -38 51 -8 51 12 1 33 7 47
15 35 20 38 19 55 -21z"/>
<path d="M87 693 c-4 -3 -7 -34 -7 -67 0 -71 12 -94 93 -181 l56 -60 1 -102
c0 -68 4 -104 12 -109 16 -10 145 -16 186 -9 l32 6 0 103 0 102 66 73 c77 86
84 102 84 187 0 50 -3 64 -15 64 -12 0 -15 -14 -15 -62 -1 -74 -6 -85 -85
-173 l-60 -67 -5 -96 -5 -97 -77 -3 -78 -3 0 96 0 95 -75 81 -75 80 0 63 c0
60 -16 97 -33 79z"/>
<path d="M1027 693 c-12 -11 -7 -113 7 -146 7 -18 41 -62 75 -100 l61 -67 0
-105 0 -105 33 0 c17 0 64 -2 102 -4 39 -1 76 -1 83 2 8 3 12 34 12 109 l0
105 61 66 c34 37 68 81 75 99 16 36 19 139 5 147 -18 12 -34 -24 -27 -63 8
-52 -6 -86 -58 -141 -95 -100 -94 -99 -89 -192 7 -106 2 -111 -93 -101 l-69 8
-1 80 c-1 44 -2 87 -3 95 -1 9 -29 47 -64 85 -75 84 -87 109 -87 180 0 51 -7
65 -23 48z"/>
<path d="M287 620 c-38 -30 -52 -80 -33 -123 15 -36 58 -67 95 -67 56 0 101
51 101 115 0 79 -99 125 -163 75z m107 -31 c51 -40 21 -119 -46 -119 -64 0
-91 69 -46 117 27 29 57 29 92 2z"/>
<path d="M1217 614 c-33 -33 -41 -57 -33 -99 17 -87 130 -109 186 -37 34 43
18 127 -29 152 -37 20 -96 12 -124 -16z m104 -15 c26 -13 41 -53 33 -86 -14
-55 -108 -60 -133 -7 -15 34 -14 41 10 75 22 31 54 38 90 18z"/>
<path d="M654 528 c-12 -5 -27 -20 -33 -32 -15 -30 -111 -301 -111 -315 0 -6
7 -11 15 -11 8 0 15 1 15 3 0 9 101 290 110 307 10 19 22 20 159 20 107 0 151
-3 158 -12 6 -7 32 -78 58 -158 52 -153 63 -176 77 -162 8 8 -41 173 -88 300
-24 64 -48 72 -206 71 -73 0 -143 -5 -154 -11z"/>
</g>
</svg>
