<?xml version="1.0" encoding="utf-8"?>
<!-- Generator: Adobe Illustrator 25.0.0, SVG Export Plug-In . SVG Version: 6.00 Build 0)  -->
<svg version="1.1" id="Capa_1" xmlns="http://www.w3.org/2000/svg" xmlns:xlink="http://www.w3.org/1999/xlink" x="0px" y="0px"
	 viewBox="0 0 1200 1200" enable-background="new 0 0 1200 1200" xml:space="preserve">
<g>
	<path fill="#141414" d="M717.59,205.671c1.225,0,2.252,0.969,2.252,2.195c0.029,1.14-0.798,2.081-1.853,2.252
		c-9.207,1.567-18.812,2.366-28.161,1.995c-11.088,50.452-58.005,80.067-91.64,114.955c-0.142,0.171-0.314,0.342-0.485,0.513
		c1.226,54.243,7.468,108.4,18.87,161.417c6.784,26.195,15.392,56.694,22.233,82.148c4.361,13.34,9.036,26.565,14.11,39.648
		c29.188-5.415,58.119-13.653,85.34-25.482c1.938-55.811-0.741-111.792-9.919-166.804c-4.504-30.413-16.076-63.221-7.012-94.49
		c1.995-6.527,5.729-18.584,7.724-25.226l35.316-115.355c0.627-2.109,3.82-1.055,3.221,0.94
		c-3.877,13.739-35.317,124.903-38.394,135.82c0.798,2.508,1.568,5.045,2.337,7.554c21.065,68.466,38.138,139.155,38.68,211.156
		c15.022-2.451,30.1-2.138,45.093-0.057c0-0.029,0.029-0.029,0.029-0.029c-0.171-2.679-0.314-5.358-0.485-8.038
		C807.634,408.845,802.275,286.65,786,165.623c-1.254-9.235-2.565-18.442-3.934-27.648c-2.309,4.589-3.478,9.52-5.045,14.622
		c-0.656,2.452-4.503,1.625-4.133-0.855c0.855-7.725,1.768-15.905,5.017-23.231c-24-10.803-58.147-24.143-82.945-34.033
		c6.841,36.2,4.674,73.482-3.221,109.283C700.317,205.243,708.84,205.87,717.59,205.671z M709.495,419.477
		c1.995,0.142,2.052,3.192,0.143,3.506c-5.045,0.912-10.062,1.625-15.079,2.337l-14.993,2.138l-30.014,4.561
		c-2.394,0.428-3.278-3.221-1.026-3.99C667.937,421.159,688.887,417.767,709.495,419.477z M615.063,425.976
		c-1.226-31.696-5.872-60.97-7.097-92.666c17.644-16.56,38.737-38.794,56.38-55.354
		C646.616,323.533,624.868,378.061,615.063,425.976z M730.901,579.868c-22.603,7.981-46.062,16.732-69.577,21.349
		c-19.269-52.304-33.749-106.376-43.24-161.303c15.933,53.502,40.105,119.374,99.849,134.737L730.901,579.868z M779.672,166.45
		c8.693,116.01,21.549,248.61,30.214,364.62c-10.974-0.171-19.525-1.425-30.613,0.969c-2.479-69.749-21.15-145.882-41.529-212.638
		C753.676,275.106,772.774,212.284,779.672,166.45z M705.961,105.224c17.188,8.095,29.502,12.37,47.516,18.328
		c-21.236,17.929-39.249,43.668-43.497,71.145c-2.109-0.884-5.644-3.022-7.753-2.138
		C711.291,164.511,712.602,133.955,705.961,105.224z M615.177,107.247l20.095-2.395l-19.696-0.37
		c-0.029-1.197-0.256-2.366-0.656-3.478c9.406-4.817,19.896-9.349,23.344-9.634c1.055,3.164,2.366,12.456,2.081,20.637
		c-7.154,3.335-19.924-0.77-25.853-3.021C614.777,108.444,615.005,107.846,615.177,107.247z M660.982,69.194
		c0.57,0.257,1.141,0.485,1.711,0.77c8.779,4.532,16.903,10.832,22.461,19.126c10.603,43.639,7.611,90.3-4.076,133.455
		c-13.055,38.024-46.376,63.962-74.053,91.526c21.549-35.174,43.354-71.231,53.359-111.678
		C668.051,158.554,671.443,112.891,660.982,69.194z M601.723,106.649c-0.513-0.884-0.684-1.91-0.513-2.907
		c0.2-1.169,0.827-2.166,1.768-2.822c0.77-0.542,1.625-0.798,2.508-0.798c0.257,0,0.513,0,0.77,0.057
		c0.428,0.085,0.855,0.199,1.226,0.427C606.369,102.915,604.317,105.508,601.723,106.649z M596.649,109.214
		c0,0.029,0.028,0.029,0.028,0.057c-0.199,0.171-0.428,0.371-0.627,0.541C596.25,109.584,596.45,109.385,596.649,109.214z
		 M528.582,211.286c-7.696-31.839-11.401-64.818-8.494-97.455c0.884-10.774,2.537-21.435,4.931-31.953
		c1.454-2.394,3.136-4.589,4.988-6.641c4.931-5.388,10.917-9.948,17.644-12.884c-10.86,42.442-7.753,87.221-0.57,129.891
		c9.064,41.73,27.335,80.665,48.229,117.578C568.658,280.749,539.271,250.136,528.582,211.286z M595.594,102.743
		c-6.214,0.285-21.463,1.026-26.309,1.511l26.395,2.195c0.057,0.342,0.143,0.684,0.257,1.026l-20.922,5.872
		c-3.079,0.371-4.675,0.884-5.416,1.454c-0.826-3.05-1.34-6.67-1.397-10.518c-0.114-4.39,0.399-9.064,1.767-13.368
		c0.2-0.57,0.627-0.855,0.884-0.969c0.256-0.143,0.798-0.285,1.254-0.114l23.858,11.573c-0.142,0.428-0.314,0.855-0.371,1.311
		V102.743z M388.115,531.811c11.401-1.368,22.889-2.252,34.376-1.824c4.504,0.143,8.979,0.513,13.482,1.112
		c0.656-69.464,22.09-136.39,42.955-201.978c1.026-3.192,2.052-6.356,3.05-9.549c-1.14-4.219-2.223-8.466-3.278-12.741
		c-9.948-40.191-16.874-81.35-31.069-120.058c-0.969-2.622,2.907-3.848,3.876-1.482c5.216,13.426,9.549,27.079,13.426,40.846
		c8.494,30.271,14.794,61.083,23.487,91.241c8.808,31.154-2.708,63.763-7.24,94.091c-9.207,54.984-11.887,110.993-9.948,166.776
		c27.221,11.857,56.152,20.095,85.369,25.511c20.865-52.76,34.746-108.229,45.578-163.725c-4.931-37.312-7.696-74.936-7.639-112.504
		c-0.142-1.055,0.94-1.682,1.625-2.423c0.086-0.086,0.171-0.171,0.257-0.285c1.197-1.653,3.192-4.675,4.276-6.385
		c-0.428-0.285-0.884-0.627-1.34-0.998c-3.278-2.594-7.411-6.898-10.119-9.264c-28.133-27.079-57.093-56.381-68.865-94.689
		c-10.974-40.732-15.278-84.086-6.67-125.73c-6.299,2.48-13.112,5.216-20.209,8.038c-21.321,8.494-45.036,18.043-63.25,26.252
		l12.029,34.689c0.399,1.14-0.228,2.394-1.34,2.793c-1.083,0.342-2.223-0.142-2.708-1.14l-11.344-24.143
		c-6.1,39.877-11.744,79.811-16.846,119.83c-3.192,24.77-6.157,49.568-8.893,74.395c-7.439,67.611-13.197,135.393-16.475,203.317
		C385.75,531.269,387.09,531.326,388.115,531.811z M481.437,568.238c-2.394-45.92,0.086-92.067,7.383-137.474
		c5.587,56.58,22.66,113.929,57.236,159.051C523.394,588.305,501.105,579.611,481.437,568.238z M589.095,319.116
		c-0.513,38.908-1.026,74.138,0.542,113.017c-11.972-54.471-31.212-111.364-52.133-163.07
		C554.691,285.737,571.879,302.441,589.095,319.116z M516.211,413.121c16.532,2.394,32.808,7.012,47.687,14.594
		c0.713,0.399,0.998,1.283,0.627,1.995c-0.314,0.599-0.969,0.884-1.596,0.77c-21.606-4.617-42.414-10.261-63.678-16.19
		C494.691,410.441,514.416,412.921,516.211,413.121z M496.202,102.288c1.083-0.428,2.166-0.884,3.249-1.34
		c-12.77,47.031-22.603,107.687-18.071,156.229c-3.449-10.575-6.698-21.549-9.834-32.666c-9.349-33.378-17.672-68.38-28.076-100.162
		C461.057,116.995,478.615,109.67,496.202,102.288z M418.415,255.153c3.734-29.017,7.867-57.948,12.456-86.822
		c13.198,48.599,29.302,91.212,42.5,139.84c-26.138,66.698-43.012,142.547-46.889,214.092c-1.169-0.256-2.366-0.485-3.592-0.713
		c-8.608-1.539-18.613-2.537-26.765-4.247C399.774,429.653,407.185,342.175,418.415,255.153z M650.892,619.887
		c-2.052,0.371-4.019-0.798-4.703-2.68c-1.026-2.765-1.967-5.53-2.936-8.266c-26.28-2.166-51.905-3.649-78.243-3.534
		c-0.57,1.596-1.112,3.164-1.682,4.731c-0.741,1.967-2.765,3.05-4.732,2.679c-26.509-4.674-52.532-11.658-77.644-21.349
		c6.983,155.602,14.708,390.758,20.979,548.526c11.259,1.625,22.689,3.392,34.091,4.162c10.86,0.741,21.691,0.598,32.437-1.397
		c7.724-153.977,14.28-308.154,26.195-461.875l1.51-15.535c0.485-5.159,1.425-10.518,2.138-15.762
		c0.314-2.309,2.423-3.934,4.732-3.62c1.938,0.256,3.392,1.767,3.648,3.62c0.684,5.245,1.653,10.603,2.138,15.762l1.511,15.535
		c12.114,153.549,18.898,307.584,26.822,461.39c11.259,2.138,22.66,2.452,34.033,1.653c8.266-0.541,16.504-1.71,24.627-3.135
		c2.166-0.371,4.333-0.77,6.47-1.197l21.805-539.377c-4.675,1.71-9.349,3.363-14.081,4.874
		C690.683,611.478,670.901,616.353,650.892,619.887z M524.135,1136.888l-14.851-0.513l-16.39-527.006
		C517.523,789.684,537.732,955.405,524.135,1136.888z M560.592,1136.888c-2.679,0.713-8.009-0.713-10.689,0
		c-0.77-0.314-4.532,0.057-3.734-0.143c2.423-167.545,16.361-324.601,41.672-490.236L560.592,1136.888z M654.426,1136.888
		c-2.68-0.713-8.009,0.713-10.689,0L616.488,646.51c25.311,165.635,39.25,322.691,41.672,490.236
		C658.958,1136.945,655.196,1136.574,654.426,1136.888z M695.044,1136.375l-14.85,0.513
		c-13.596-181.484,6.613-347.204,31.211-527.519L695.044,1136.375z"/>
	<path fill="#FFFFFF" d="M811.282,546.918c-0.399,2.594-0.798,5.387-1.169,7.953c-10.148-1.397-21.007,0.114-30.984,2.252
		c-0.171-3.249-0.485-8.38-0.485-10.746C789.477,545.321,800.479,545.607,811.282,546.918z M391.422,540.048
		c0.37,2.537,0.741,5.302,1.111,7.81c11.145-1.625,25.995-0.883,37.169,1.112c0.057-1.026,0.114-2.109,0.171-3.192
		c0.142-2.48,0.256-4.96,0.313-6.755C417.303,537.853,404.249,538.566,391.422,540.048z M642.882,87.722
		c1.197,2.109,2.651,8.894,3.135,16.475l11.544-9.976c-1.225-8.123-2.85-16.19-4.988-24.171
		c-8.18,7.069-16.874,13.625-26.138,19.183C640.374,83.446,642.027,86.183,642.882,87.722z M564.525,89.204
		c0.627-1.938,2.052-3.563,3.933-4.446c1.881-0.855,4.076-0.912,6.015-0.114l24.77,12c0.114-0.086,0.257-0.257,0.399-0.342
		c-8.238-3.534-16.076-8.836-23.516-13.767c-6.841-4.931-13.283-10.432-19.126-16.703c-2.166,9.207-3.705,18.47-4.76,27.791
		l10.261,8.865C562.559,97.955,563.214,93.366,564.525,89.204z M587.357,285.852c5.985-16.333,4.674-134.823,4.247-165.151
		c-5.644,4.104-12.171,7.867-17.131,7.867c-1.596,0-3.022-0.371-4.19-1.254c-3.877-2.85-6.499-9.578-7.44-17.302l-11.544-6.898
		c-2.28,29.188,0.029,58.803,4.219,87.82C561.618,223.656,573.532,255.324,587.357,285.852z M592.26,296.455
		c3.135,6.67,6.299,13.255,9.549,19.782c0.028,0.086,0.085,0.171,0.114,0.256c21.578-36.086,43.468-73.91,52.932-115.155
		c4.931-32.095,7.497-65.131,3.934-97.483l-12.656,7.554c-0.228,7.354-1.71,14.395-5.444,17.843
		c-1.454,1.34-3.364,2.052-5.501,2.052c-0.171,0-0.314,0-0.485,0c-9.121-0.427-22.062-13.796-25.454-17.501
		c-1.197,0.485-2.451,0.741-3.706,0.741c-0.598,0-1.168-0.029-1.767-0.142c-1.084-0.171-2.11-0.57-3.05-1.084
		c-1.311,1.169-2.965,2.594-4.817,4.076C599.015,142.25,593.342,272.056,592.26,296.455z"/>
	<path d="M737.743,319.401c15.933-44.295,35.031-107.117,41.929-152.951c8.693,116.01,21.549,248.61,30.214,364.62
		c-10.974-0.171-19.525-1.425-30.613,0.969C776.793,462.29,758.123,386.156,737.743,319.401z M618.084,439.914
		c9.492,54.927,23.972,108.998,43.24,161.303c23.516-4.618,46.974-13.368,69.577-21.349l-12.969-5.216
		C658.188,559.288,634.017,493.416,618.084,439.914z M709.98,194.697c4.247-27.477,22.261-53.216,43.497-71.145
		c-18.014-5.958-30.328-10.233-47.516-18.328c6.642,28.731,5.331,59.288-3.734,87.335
		C704.336,191.675,707.871,193.813,709.98,194.697z M680.194,1136.888l14.85-0.513l16.361-527.006
		C686.806,789.684,666.597,955.405,680.194,1136.888z M616.488,646.51l27.249,490.379c2.68,0.713,8.009-0.713,10.689,0
		c0.77-0.314,4.532,0.057,3.734-0.143C655.737,969.201,641.799,812.145,616.488,646.51z M649.552,432.019l30.014-4.561l14.993-2.138
		c5.017-0.713,10.033-1.425,15.079-2.337c1.91-0.314,1.853-3.364-0.143-3.506c-20.608-1.71-41.558,1.681-60.969,8.551
		C646.274,428.798,647.158,432.447,649.552,432.019z M607.965,333.31c1.225,31.696,5.872,60.97,7.097,92.666
		c9.805-47.915,31.554-102.443,49.283-148.02C646.702,294.517,625.609,316.75,607.965,333.31z M589.095,319.116
		c-17.216-16.675-34.404-33.378-51.591-50.052c20.921,51.706,40.161,108.599,52.133,163.07
		C588.07,393.254,588.582,358.023,589.095,319.116z M549.903,1136.888c2.68-0.713,8.01,0.713,10.689,0l27.25-490.379
		c-25.311,165.635-39.25,322.691-41.672,490.236C545.371,1136.945,549.133,1136.574,549.903,1136.888z M509.285,1136.375
		l14.851,0.513c13.596-181.484-6.613-347.204-31.24-527.519L509.285,1136.375z M481.437,568.238
		c19.668,11.373,41.958,20.067,64.618,21.577c-34.575-45.121-51.649-102.471-57.236-159.051
		C481.522,476.171,479.043,522.319,481.437,568.238z M499.251,414.29c21.264,5.929,42.072,11.573,63.678,16.19
		c0.627,0.114,1.283-0.171,1.596-0.77c0.37-0.713,0.085-1.596-0.627-1.995c-14.879-7.582-31.155-12.2-47.687-14.594
		C514.416,412.921,494.691,410.441,499.251,414.29z M481.38,257.177c-4.532-48.542,5.302-109.198,18.071-156.229
		c-1.083,0.456-2.166,0.912-3.249,1.34c-17.587,7.382-35.145,14.708-52.732,22.062c10.404,31.781,18.727,66.784,28.076,100.162
		C474.682,235.628,477.931,246.602,481.38,257.177z M426.482,522.262c3.876-71.544,20.75-147.393,46.889-214.092
		c-13.198-48.628-29.302-91.241-42.5-139.84c-4.589,28.874-8.722,57.806-12.456,86.822c-11.231,87.022-18.642,174.5-22.29,262.149
		c8.152,1.71,18.157,2.708,26.765,4.247C424.116,521.777,425.313,522.005,426.482,522.262z M375.83,537.141
		c6.556-140.068,23.316-279.479,44.694-417.979c0.228-1.482,1.197-2.651,2.451-3.249c15.791-7.154,31.754-13.739,47.744-20.238
		l45.72-18.214c8.58-6.071,18.67-13.71,27.25-19.81c2.993-2.195,6.014-4.361,9.007-6.87c3.506-2.48,8.324,1.397,6.841,5.302
		c11.316,16.105,27.164,29.103,44.58,38.423c1.026-0.143,2.081-0.114,3.107,0.057c0.427,0.057,0.855,0.171,1.254,0.313
		c7.953-4.361,15.449-9.605,22.461-15.42c7.582-6.271,14.594-13.169,21.036-20.409c1.796-1.796,4.988-1.539,6.413,0.598
		c11.63,7.041,22.062,15.734,32.751,24.086l47.658,19.012c15.991,6.47,31.924,13.055,47.715,20.238
		c1.34,0.598,2.223,1.852,2.452,3.221c21.406,138.215,26.793,278.111,35.202,417.409c0.171,2.508-1.938,4.675-4.418,4.503
		c-1.539,5.017,0.228,17.102-7.154,15.905c-11.344-2.68-24.855-0.2-36.57,2.565c-2.594,0.684-5.33-1.482-5.273-4.161
		c0-3.42-0.541-11.088-0.627-14.822c-1.054,0.199-2.138,0.37-3.192,0.598c-2.68,0.627-5.302-1.539-5.216-4.276
		c1.482-72.884-14.85-144.97-34.889-214.719c-6.271,29.701,5.017,58.262,9.948,87.963c9.435,56.523,12.114,114.015,9.948,171.165
		c-0.057,1.653-1.083,3.078-2.508,3.734c-3.791,1.682-7.611,3.307-11.43,4.846l-22.09,546.274c-0.085,2.195-1.824,3.934-3.962,4.076
		c-11.772-0.883-23.459,0.171-35.174,1.169c-6.727,0.599-13.454,1.168-20.209,1.311c-6.214,0.228-12.485,0.228-18.784,0.256
		c-2.166-0.086-3.819-1.91-3.791-4.048c-7.81-152.096-14.622-304.363-26.309-456.231c-11.915,151.839-18.927,304.107-26.936,456.202
		c0.029,1.825-1.397,3.364-3.192,3.392c-12.285,0.57-24.456-0.057-36.599-0.855c-12.456-0.827-24.912-1.825-37.454-1.967
		c-1.796-0.057-3.221-1.568-3.221-3.335l-11.829-278.966c-2.965-78.813-9.264-198.671-11.202-276.316
		c-3.164-1.767-8.95-2.166-9.264-6.613c-2.138-57.15,0.513-114.642,9.976-171.193c4.475-26.964,13.91-52.362,11.145-79.383
		c-19.981,66.727-40.96,135.308-39.364,205.427c0.086,3.05-3.022,5.074-5.843,4.161c-0.114,3.734-0.57,10.717-0.598,13.882
		c0.086,2.679-2.679,4.846-5.245,4.161c-11.572-2.736-31.24-3.991-42.784-1.283c-7.382,1.169-5.615-10.746-7.097-15.791
		c-0.713,0.114-1.425,0.199-2.109,0.313C378.168,542.072,375.688,539.792,375.83,537.141z M430.187,539.022
		c-12.884-1.169-25.938-0.456-38.765,1.026c0.37,2.537,0.741,5.302,1.111,7.81c11.145-1.625,25.995-0.883,37.169,1.112
		c0.057-1.026,0.114-2.109,0.171-3.192C430.016,543.298,430.13,540.818,430.187,539.022z M724.089,600.22
		c-4.675,1.71-9.349,3.363-14.081,4.874c-19.325,6.385-39.107,11.259-59.117,14.794c-2.052,0.371-4.019-0.798-4.703-2.68
		c-1.026-2.765-1.967-5.53-2.936-8.266c-26.28-2.166-51.905-3.649-78.243-3.534c-0.57,1.596-1.112,3.164-1.682,4.731
		c-0.741,1.967-2.765,3.05-4.732,2.679c-26.509-4.674-52.532-11.658-77.644-21.349c6.983,155.602,14.708,390.758,20.979,548.526
		c11.259,1.625,22.689,3.392,34.091,4.162c10.86,0.741,21.691,0.598,32.437-1.397c7.724-153.977,14.28-308.154,26.195-461.875
		l1.51-15.535c0.485-5.159,1.425-10.518,2.138-15.762c0.314-2.309,2.423-3.934,4.732-3.62c1.938,0.256,3.392,1.767,3.648,3.62
		c0.684,5.245,1.653,10.603,2.138,15.762l1.511,15.535c12.114,153.549,18.898,307.584,26.822,461.39
		c11.259,2.138,22.66,2.452,34.033,1.653c8.266-0.541,16.504-1.71,24.627-3.135c2.166-0.371,4.333-0.77,6.47-1.197L724.089,600.22z
		 M811.282,546.918c-10.803-1.311-21.805-1.596-32.637-0.542c0,2.366,0.314,7.497,0.485,10.746
		c9.976-2.138,20.836-3.649,30.984-2.252C810.484,552.305,810.883,549.511,811.282,546.918z M691.737,203.761
		c8.58,1.482,17.102,2.109,25.853,1.91c1.225,0,2.252,0.969,2.252,2.195c0.029,1.14-0.798,2.081-1.853,2.252
		c-9.207,1.567-18.812,2.366-28.161,1.995c-11.088,50.452-58.005,80.067-91.64,114.955c-0.142,0.171-0.314,0.342-0.485,0.513
		c1.226,54.243,7.468,108.4,18.87,161.417c6.784,26.195,15.392,56.694,22.233,82.148c4.361,13.34,9.036,26.565,14.11,39.648
		c29.188-5.415,58.119-13.653,85.34-25.482c1.938-55.811-0.741-111.792-9.919-166.804c-4.504-30.413-16.076-63.221-7.012-94.49
		c1.995-6.527,5.729-18.584,7.724-25.226l35.316-115.355c0.627-2.109,3.82-1.055,3.221,0.94
		c-3.877,13.739-35.317,124.903-38.394,135.82c0.798,2.508,1.568,5.045,2.337,7.554c21.065,68.466,38.138,139.155,38.68,211.156
		c15.022-2.451,30.1-2.138,45.093-0.057c0-0.029,0.029-0.029,0.029-0.029c-0.171-2.679-0.314-5.358-0.485-8.038
		C807.634,408.845,802.275,286.65,786,165.623c-1.254-9.235-2.565-18.442-3.934-27.648c-2.309,4.589-3.478,9.52-5.045,14.622
		c-0.656,2.452-4.503,1.625-4.133-0.855c0.855-7.725,1.768-15.905,5.017-23.231c-24-10.803-58.147-24.143-82.945-34.033
		C701.799,130.677,699.633,167.96,691.737,203.761z M660.982,69.194c10.461,43.696,7.069,89.36-0.598,133.198
		c-10.005,40.447-31.81,76.504-53.359,111.678c27.677-27.563,60.998-53.501,74.053-91.526c11.687-43.155,14.68-89.815,4.076-133.455
		c-5.558-8.294-13.682-14.594-22.461-19.126C662.122,69.679,661.552,69.451,660.982,69.194z M626.436,89.233
		c13.938-5.786,15.591-3.05,16.447-1.511c1.197,2.109,2.651,8.894,3.135,16.475l11.544-9.976c-1.225-8.123-2.85-16.19-4.988-24.171
		C644.393,77.119,635.699,83.675,626.436,89.233z M635.272,104.853l-20.095,2.395c-0.171,0.598-0.399,1.197-0.684,1.739
		c5.929,2.252,18.698,6.356,25.853,3.021c0.285-8.181-1.026-17.472-2.081-20.637c-3.449,0.285-13.938,4.817-23.344,9.634
		c0.399,1.112,0.627,2.28,0.656,3.478L635.272,104.853z M601.209,103.741c-0.171,0.997,0,2.024,0.513,2.907
		c2.594-1.141,4.646-3.734,5.758-6.043c-0.371-0.228-0.798-0.342-1.226-0.427c-0.256-0.057-0.513-0.057-0.77-0.057
		c-0.883,0-1.738,0.256-2.508,0.798C602.036,101.575,601.409,102.573,601.209,103.741z M600.725,113.318
		c-1.311,1.169-2.965,2.594-4.817,4.076c3.106,24.856-2.566,154.661-3.649,179.06c3.135,6.67,6.299,13.255,9.549,19.782
		c0.028,0.086,0.085,0.171,0.114,0.256c21.578-36.086,43.468-73.91,52.932-115.155c4.931-32.095,7.497-65.131,3.934-97.483
		l-12.656,7.554c-0.228,7.354-1.71,14.395-5.444,17.843c-1.454,1.34-3.364,2.052-5.501,2.052c-0.171,0-0.314,0-0.485,0
		c-9.121-0.427-22.062-13.796-25.454-17.501c-1.197,0.485-2.451,0.741-3.706,0.741c-0.598,0-1.168-0.029-1.767-0.142
		C602.692,114.231,601.666,113.831,600.725,113.318z M569.285,104.254c4.846-0.484,20.095-1.225,26.309-1.511v-0.029
		c0.057-0.456,0.228-0.883,0.371-1.311l-23.858-11.573c-0.456-0.171-0.998-0.029-1.254,0.114c-0.257,0.114-0.684,0.399-0.884,0.969
		c-1.368,4.304-1.881,8.978-1.767,13.368c0.057,3.848,0.57,7.468,1.397,10.518c0.741-0.57,2.337-1.083,5.416-1.454l20.922-5.872
		c-0.114-0.342-0.2-0.684-0.257-1.026L569.285,104.254z M596.677,109.271c0-0.029-0.028-0.029-0.028-0.057
		c-0.2,0.171-0.399,0.371-0.599,0.598C596.25,109.641,596.478,109.442,596.677,109.271z M552.24,93.622l10.261,8.865
		c0.057-4.532,0.713-9.121,2.024-13.283c0.627-1.938,2.052-3.563,3.933-4.446c1.881-0.855,4.076-0.912,6.015-0.114l24.77,12
		c0.114-0.086,0.257-0.257,0.399-0.342c-8.238-3.534-16.076-8.836-23.516-13.767c-6.841-4.931-13.283-10.432-19.126-16.703
		C554.834,75.038,553.295,84.302,552.24,93.622z M555.518,190.934c6.1,32.722,18.015,64.39,31.839,94.917
		c5.985-16.333,4.674-134.823,4.247-165.151c-5.644,4.104-12.171,7.867-17.131,7.867c-1.596,0-3.022-0.371-4.19-1.254
		c-3.877-2.85-6.499-9.578-7.44-17.302l-11.544-6.898C549.019,132.302,551.328,161.917,555.518,190.934z M528.582,211.286
		c10.689,38.85,40.076,69.463,66.727,98.537c-20.893-36.913-39.164-75.848-48.229-117.578c-7.183-42.67-10.289-87.45,0.57-129.891
		c-6.727,2.936-12.713,7.496-17.644,12.884c-1.852,2.052-3.534,4.247-4.988,6.641c-2.394,10.518-4.047,21.178-4.931,31.953
		C517.18,146.468,520.886,179.447,528.582,211.286z M384.666,531.782c1.083-0.513,2.423-0.456,3.449,0.029
		c11.401-1.368,22.889-2.252,34.376-1.824c4.504,0.143,8.979,0.513,13.482,1.112c0.656-69.464,22.09-136.39,42.955-201.978
		c1.026-3.192,2.052-6.356,3.05-9.549c-1.14-4.219-2.223-8.466-3.278-12.741c-9.948-40.191-16.874-81.35-31.069-120.058
		c-0.969-2.622,2.907-3.848,3.876-1.482c5.216,13.426,9.549,27.079,13.426,40.846c8.494,30.271,14.794,61.083,23.487,91.241
		c8.808,31.154-2.708,63.763-7.24,94.091c-9.207,54.984-11.887,110.993-9.948,166.776c27.221,11.857,56.152,20.095,85.369,25.511
		c20.865-52.76,34.746-108.229,45.578-163.725c-4.931-37.312-7.696-74.936-7.639-112.504c-0.142-1.055,0.94-1.682,1.625-2.423
		c0.086-0.086,0.171-0.171,0.257-0.285c1.197-1.653,3.192-4.675,4.276-6.385c-0.428-0.285-0.884-0.627-1.34-0.998
		c-3.278-2.594-7.411-6.898-10.119-9.264c-28.133-27.079-57.093-56.381-68.865-94.689c-10.974-40.732-15.278-84.086-6.67-125.73
		c-6.299,2.48-13.112,5.216-20.209,8.038c-21.321,8.494-45.036,18.043-63.25,26.252l12.029,34.689
		c0.399,1.14-0.228,2.394-1.34,2.793c-1.083,0.342-2.223-0.142-2.708-1.14l-11.344-24.143c-6.1,39.877-11.744,79.811-16.846,119.83
		c-3.192,24.77-6.157,49.568-8.893,74.395C393.702,396.076,387.944,463.858,384.666,531.782z"/>
</g>
</svg>
