<?xml version="1.0" encoding="UTF-8"?>
<svg version="1.1" xmlns="http://www.w3.org/2000/svg" width="595" height="419">
<path d="M0 0 C2.88403463 1.33659568 5.30062611 2.76859865 7.8671875 4.63671875 C8.72441406 5.2503125 9.58164062 5.86390625 10.46484375 6.49609375 C12.07994483 7.7042992 13.67393731 8.94160381 15.23828125 10.21484375 C16.26115234 11.04242188 16.26115234 11.04242188 17.3046875 11.88671875 C17.89894531 12.39203125 18.49320312 12.89734375 19.10546875 13.41796875 C20.99681584 14.59201322 20.99681584 14.59201322 23.3984375 14.23828125 C26.34913289 13.26952885 28.58618487 11.97028917 31.1796875 10.26171875 C32.13488281 9.64039062 33.09007812 9.0190625 34.07421875 8.37890625 C37.70885734 5.89742609 41.22627079 3.27197854 44.703125 0.57421875 C47.57124832 -0.9136814 48.96738602 -0.55385556 51.9921875 0.38671875 C51.9921875 1.04671875 51.9921875 1.70671875 51.9921875 2.38671875 C57.01479823 4.9053096 62.062613 7.37051075 67.1171875 9.82421875 C68.11234375 10.31470703 69.1075 10.80519531 70.1328125 11.31054688 C77.93718576 15.08537755 85.66010797 17.98556291 94.2421875 19.38671875 C98.23808325 20.15322705 101.53564989 21.13996931 104.9921875 23.38671875 C106.86091605 26.37187295 107.32151585 28.93161193 107.58984375 32.4140625 C107.70875977 33.84975586 107.70875977 33.84975586 107.83007812 35.31445312 C107.94125977 36.80428711 107.94125977 36.80428711 108.0546875 38.32421875 C108.20979156 40.29186117 108.36726539 42.25931852 108.52734375 44.2265625 C108.62607788 45.53161743 108.62607788 45.53161743 108.72680664 46.86303711 C108.9955766 49.41894793 109.47604416 51.87058351 109.9921875 54.38671875 C110.2872093 57.24054352 110.5553882 60.09141123 110.8046875 62.94921875 C111.68793432 72.62482668 112.71581823 82.28256553 113.7840271 91.93917847 C113.96392613 93.56597764 114.14298806 95.19286961 114.32119751 96.81985474 C114.57501035 99.13408284 114.83193274 101.44794419 115.08984375 103.76171875 C115.16583801 104.45680038 115.24183228 105.15188202 115.32012939 105.86802673 C115.72052767 109.42113694 116.28805732 112.88388935 116.9921875 116.38671875 C117.17400759 118.1328272 117.3275735 119.88204297 117.45703125 121.6328125 C117.53501953 122.63634766 117.61300781 123.63988281 117.69335938 124.67382812 C117.84826712 126.73883802 118.00195685 128.80393972 118.15429688 130.86914062 C118.56557052 136.13544949 119.10149877 141.33609309 119.8984375 146.55859375 C121.55562705 157.71977691 122.48300858 168.96995637 123.5546875 180.19921875 C123.88683766 183.65044013 124.21989094 187.10157274 124.55345154 190.55265808 C124.75926953 192.68513894 124.96413339 194.81771219 125.16786194 196.95039368 C125.72616609 202.7688885 126.33136903 208.57894619 126.9921875 214.38671875 C123.66256904 216.14707872 120.96047 216.82280695 117.203125 217.2734375 C115.54410156 217.47356445 115.54410156 217.47356445 113.8515625 217.67773438 C112.70171875 217.80857422 111.551875 217.93941406 110.3671875 218.07421875 C109.20960938 218.21666016 108.05203125 218.35910156 106.859375 218.50585938 C98.25167041 219.51646021 98.25167041 219.51646021 95.9921875 218.38671875 C92.36204956 208.02927788 91.71800801 196.43211183 90.43008423 185.60464478 C89.91999563 181.31705586 89.39463071 177.03137899 88.87016296 172.74552917 C88.60874456 170.60810056 88.3480881 168.47057861 88.08821106 166.33296204 C87.04744761 157.78084547 85.95145481 149.23777889 84.8046875 140.69921875 C84.64782471 139.53124756 84.49096191 138.36327637 84.3293457 137.15991211 C82.94019648 126.89412159 81.48572347 116.63780651 79.9921875 106.38671875 C70.32324217 125.78542039 72.2795383 141.14120937 76.1796875 161.76171875 C76.41153748 163.00779907 76.41153748 163.00779907 76.64807129 164.27905273 C79.07944444 177.32443731 81.98007647 190.18156447 85.37841797 203.01123047 C87.37116074 210.72379498 88.91816556 218.49413547 89.9921875 226.38671875 C86.69535066 228.30596464 83.85126752 228.80929982 80.07421875 229.203125 C78.90963135 229.32727783 77.74504395 229.45143066 76.54516602 229.5793457 C75.31080811 229.70140381 74.0764502 229.82346191 72.8046875 229.94921875 C71.547771 230.07707764 70.29085449 230.20493652 68.99584961 230.33666992 C40.76934432 233.1453586 40.76934432 233.1453586 35.9921875 230.38671875 C31.10503426 223.85727012 29.1732893 215.11181638 26.9921875 207.38671875 C26.61397884 206.07271568 26.23505487 204.75891832 25.85546875 203.4453125 C24.89020113 200.09548718 23.93793591 196.74211337 22.9921875 193.38671875 C22.70553223 194.44415283 22.70553223 194.44415283 22.41308594 195.52294922 C21.52887758 198.7708987 20.63559273 202.01628752 19.7421875 205.26171875 C19.44183594 206.3703125 19.14148438 207.47890625 18.83203125 208.62109375 C13.51219157 227.86306705 13.51219157 227.86306705 8.9921875 231.38671875 C6.11123412 231.70134107 3.49828099 231.81012135 0.6171875 231.76171875 C-0.23609131 231.75446777 -1.08937012 231.7472168 -1.96850586 231.73974609 C-10.20191989 231.57329754 -18.37941908 230.82948747 -26.5703125 230.01171875 C-27.84890137 229.88587402 -29.12749023 229.7600293 -30.44482422 229.63037109 C-31.64252441 229.50098145 -32.84022461 229.3715918 -34.07421875 229.23828125 C-35.6821228 229.06546631 -35.6821228 229.06546631 -37.32250977 228.88916016 C-40.0078125 228.38671875 -40.0078125 228.38671875 -43.0078125 226.38671875 C-42.38669148 219.13020737 -40.90624917 212.31733279 -39.1328125 205.26171875 C-37.14751918 197.18846654 -35.27863317 189.13910344 -33.71875 180.97265625 C-33.04739602 177.58637627 -32.30231831 174.22713009 -31.53076172 170.86279297 C-24.23006718 142.28666179 -24.23006718 142.28666179 -30.0078125 114.38671875 C-30.60126906 113.01605756 -31.18567636 111.64141546 -31.7578125 110.26171875 C-32.3765625 108.83859375 -32.3765625 108.83859375 -33.0078125 107.38671875 C-35.19412948 115.32568537 -36.45333609 123.22525661 -37.42578125 131.38671875 C-37.68765289 133.53256322 -37.94961841 135.67839624 -38.21166992 137.82421875 C-38.4096669 139.46003906 -38.4096669 139.46003906 -38.61166382 141.12890625 C-39.23031626 146.21652547 -39.86957251 151.30152652 -40.5078125 156.38671875 C-40.75792282 158.38670496 -41.00792253 160.386705 -41.2578125 162.38671875 C-41.7578125 166.38671875 -42.2578125 170.38671875 -42.7578125 174.38671875 C-42.88172363 175.37849121 -43.00563477 176.37026367 -43.13330078 177.39208984 C-43.38119156 179.37424649 -43.62955699 181.35634384 -43.87841797 183.33837891 C-44.53977325 188.61097085 -45.19071983 193.88461131 -45.828125 199.16015625 C-45.96283203 200.26488281 -46.09753906 201.36960937 -46.23632812 202.5078125 C-46.49584692 204.63765642 -46.75247135 206.7678555 -47.00585938 208.8984375 C-47.12251953 209.85105469 -47.23917969 210.80367187 -47.359375 211.78515625 C-47.46072754 212.62739746 -47.56208008 213.46963867 -47.66650391 214.33740234 C-48.0078125 216.38671875 -48.0078125 216.38671875 -49.0078125 218.38671875 C-59.67646373 218.89564734 -69.55959041 217.35675389 -80.0078125 215.38671875 C-79.63246709 207.78103554 -79.22187994 200.23427811 -78.0703125 192.69921875 C-77.21616442 187.10329274 -76.58954258 181.52108855 -76.0703125 175.88671875 C-75.94837524 174.56474487 -75.94837524 174.56474487 -75.82397461 173.21606445 C-75.64798599 171.30421081 -75.47212933 169.39234502 -75.29638672 167.48046875 C-73.24691148 145.50842961 -70.87502393 123.56891155 -68.47216797 101.63330078 C-68.06498259 97.91478449 -67.66285471 94.19573662 -67.26171875 90.4765625 C-65.84806501 77.45209941 -64.33349046 64.43904667 -62.77828979 51.43078613 C-62.55823263 49.58425017 -62.34003887 47.73749108 -62.12380981 45.89050293 C-61.81863754 43.28957531 -61.5059443 40.68965327 -61.19140625 38.08984375 C-61.1018869 37.31491577 -61.01236755 36.53998779 -60.9201355 35.74157715 C-60.35056463 31.1146944 -59.51773966 26.80595706 -58.0078125 22.38671875 C-56.23046875 21.1171875 -56.23046875 21.1171875 -54.0703125 20.57421875 C-53.2659375 20.36023438 -52.4615625 20.14625 -51.6328125 19.92578125 C-48.95256636 19.37537356 -46.26876335 18.90151591 -43.5703125 18.44921875 C-29.89087826 16.09984223 -16.56228157 8.64650605 -5.5078125 0.4765625 C-3.0078125 -0.61328125 -3.0078125 -0.61328125 0 0 Z " fill="#262022" transform="translate(375.0078125,76.61328125)"/>
<path d="M0 0 C3.3 0 6.6 0 10 0 C12.63117213 4.19038524 14.54434274 8.28886122 16.25 12.9375 C19.25050989 20.9388597 23.01655614 28.45280632 27 36 C27.53343018 37.01900391 27.53343018 37.01900391 28.07763672 38.05859375 C29.11773843 40.02821843 30.17893886 41.98456728 31.25 43.9375 C31.87390625 45.08089844 32.4978125 46.22429687 33.140625 47.40234375 C34.73744848 50.13050412 34.73744848 50.13050412 37.234375 50.87890625 C37.81703125 50.91886719 38.3996875 50.95882812 39 51 C50.26695108 35.49137322 57.50286541 17.51301926 65 0 C68.3 0 71.6 0 75 0 C76.05503029 4.22012117 75.77277695 6.33333465 75.0625 10.5625 C73.23515177 22.81817857 73.50503931 35.03518456 75 47.3125 C76.62953994 61.15839987 76.11602546 71.28962532 71.57836914 84.56713867 C68.32309617 94.23418614 67.08046268 102.7155765 69.8125 112.625 C71.6999853 119.67070324 72.6229316 126.71242506 73.42602539 133.9453125 C74.57105035 144.21036304 75.96647593 154.44728544 77.3125 164.6875 C77.54401764 166.44953262 77.54401764 166.44953262 77.7802124 168.24716187 C79.85206014 183.9546431 82.0895447 199.59406826 84.83203125 215.19921875 C85.67536224 220.00515558 86.4317644 224.81635032 87.13671875 229.64453125 C93.76340168 276.47577497 93.76340168 276.47577497 109.8984375 320.56640625 C111 323 111 323 111 326 C109.41690095 326.29293565 107.83350085 326.58424419 106.25 326.875 C105.24839844 327.060625 104.24679688 327.24625 103.21484375 327.4375 C101.10871725 327.80600816 98.99632708 328.14069007 96.87890625 328.4375 C90.43777238 329.3564898 85.66856999 330.80498783 80 334 C73.85007574 336.04997475 66.68019445 335.59171775 60.4375 334 C52.53253098 332.0343637 45.39339608 332.81730695 37.5 334.5625 C26.8660489 336.80971515 19.56120548 335.71570712 9.7265625 331.15625 C5.05489959 329.17514367 0.85694104 328.86271147 -4.1875 328.875 C-5.3321875 328.87757813 -6.476875 328.88015625 -7.65625 328.8828125 C-10.57418617 328.98507662 -13.30829227 329.30354057 -16.1875 329.75 C-22.90149549 330.5508524 -28.52297607 327.65134929 -34 324 C-33.41251248 320.42453834 -32.43719807 317.60336444 -30.8125 314.375 C-23.65208446 299.03718236 -19.82000744 282.03212906 -16.81640625 265.4609375 C-16.24225175 262.29490587 -15.64275567 259.1348348 -15.02734375 255.9765625 C-12.76447042 244.35145678 -10.73822103 232.71503514 -9 221 C-8.82452637 219.81929932 -8.82452637 219.81929932 -8.64550781 218.61474609 C-6.98473177 207.36014463 -5.4550412 196.08717503 -3.9375 184.8125 C-3.77515869 183.61455811 -3.61281738 182.41661621 -3.44555664 181.18237305 C-2.56810458 174.61061806 -1.77720656 168.03701815 -1.0703125 161.4453125 C-0.03648832 151.88772925 1.28779467 142.37681215 2.65942383 132.86254883 C3.06951429 130.01377383 3.47345573 127.16416867 3.87695312 124.31445312 C4.13766083 122.49213596 4.39871497 120.66986832 4.66015625 118.84765625 C4.83986717 117.57753441 4.83986717 117.57753441 5.02320862 116.28175354 C5.48851504 113.0762566 5.97340278 110.07979167 7 107 C8.71257724 94.90356833 4.15645606 82.10775967 -0.1953125 70.9296875 C-2.0962761 64.0087035 -0.82418459 57.22801851 0.5 50.3125 C2.87394023 36.62977231 3.42981891 22.06917502 0.4375 8.4375 C-0.07347434 5.59064299 -0.06712191 2.88624192 0 0 Z " fill="#262022" transform="translate(138,49)"/>
<path d="M0 0 C3.75650083 0.606975 6.7735302 1.71087883 10.1875 3.375 C17.04415444 6.56435535 23.82110285 8.63414895 31.25 10 C35.24589575 10.7665083 38.54346239 11.75325056 42 14 C43.86872855 16.9851542 44.32932835 19.54489318 44.59765625 23.02734375 C44.67693359 23.98447266 44.75621094 24.94160156 44.83789062 25.92773438 C44.91201172 26.92095703 44.98613281 27.91417969 45.0625 28.9375 C45.21760406 30.90514242 45.37507789 32.87259977 45.53515625 34.83984375 C45.63389038 36.14489868 45.63389038 36.14489868 45.73461914 37.47631836 C46.0033891 40.03222918 46.48385666 42.48386476 47 45 C47.2950218 47.85382477 47.5632007 50.70469248 47.8125 53.5625 C48.69574682 63.23810793 49.72363073 72.89584678 50.7918396 82.55245972 C50.97173863 84.17925889 51.15080056 85.80615086 51.32901001 87.43313599 C51.58282285 89.74736409 51.83974524 92.06122544 52.09765625 94.375 C52.17365051 95.07008163 52.24964478 95.76516327 52.32794189 96.48130798 C52.72834017 100.03441819 53.29586982 103.4971706 54 107 C54.18182009 108.74610845 54.335386 110.49532422 54.46484375 112.24609375 C54.54283203 113.24962891 54.62082031 114.25316406 54.70117188 115.28710938 C54.85607962 117.35211927 55.00976935 119.41722097 55.16210938 121.48242188 C55.57338302 126.74873074 56.10931127 131.94937434 56.90625 137.171875 C58.56343955 148.33305816 59.49082108 159.58323762 60.5625 170.8125 C60.89465016 174.26372138 61.22770344 177.71485399 61.56126404 181.16593933 C61.76708203 183.29842019 61.97194589 185.43099344 62.17567444 187.56367493 C62.73397859 193.38216975 63.33918153 199.19222744 64 205 C60.67038154 206.76035997 57.9682825 207.4360882 54.2109375 207.88671875 C52.55191406 208.0868457 52.55191406 208.0868457 50.859375 208.29101562 C49.70953125 208.42185547 48.5596875 208.55269531 47.375 208.6875 C46.21742188 208.82994141 45.05984375 208.97238281 43.8671875 209.11914062 C35.25948291 210.12974146 35.25948291 210.12974146 33 209 C29.36986206 198.64255913 28.72582051 187.04539308 27.43789673 176.21792603 C26.92780813 171.93033711 26.40244321 167.64466024 25.87797546 163.35881042 C25.61655706 161.22138181 25.3559006 159.08385986 25.09602356 156.94624329 C24.05526011 148.39412672 22.95926731 139.85106014 21.8125 131.3125 C21.65563721 130.14452881 21.49877441 128.97655762 21.3371582 127.77319336 C19.94800898 117.50740284 18.49353597 107.25108776 17 97 C7.33105467 116.39870164 9.2873508 131.75449062 13.1875 152.375 C13.34206665 153.20572021 13.4966333 154.03644043 13.65588379 154.89233398 C16.08725694 167.93771856 18.98788897 180.79484572 22.38623047 193.62451172 C24.37897324 201.33707623 25.92597806 209.10741672 27 217 C23.70316316 218.91924589 20.85908002 219.42258107 17.08203125 219.81640625 C15.91744385 219.94055908 14.75285645 220.06471191 13.55297852 220.19262695 C12.31862061 220.31468506 11.0842627 220.43674316 9.8125 220.5625 C8.5555835 220.69035889 7.29866699 220.81821777 6.00366211 220.94995117 C-22.22284318 223.75863985 -22.22284318 223.75863985 -27 221 C-31.87971073 214.48049488 -33.8634032 205.72674446 -36 198 C-36.41765625 196.54787109 -36.41765625 196.54787109 -36.84375 195.06640625 C-38.53579598 188.83121681 -39.51381481 182.62199935 -40.2265625 176.21264648 C-40.70428959 172.02108893 -41.36280015 167.92008404 -42.21118164 163.78759766 C-42.87157354 160.53589808 -43.43018444 157.2687623 -44 154 C-44.22558594 152.95070312 -44.45117188 151.90140625 -44.68359375 150.8203125 C-45.13038652 147.34730482 -45.14456649 145.33435975 -44 142 C-41.34656699 138.60405406 -38.24719362 135.69410927 -34.98071289 132.89404297 C-31.11190295 129.57654977 -31.11190295 129.57654977 -29.19140625 124.9609375 C-30.31366559 120.85140814 -32.82842972 118.71029055 -35.9375 116 C-41.72168383 110.92313922 -41.72168383 110.92313922 -42.94921875 106.8515625 C-43.02130509 102.80363725 -41.59400806 99.63729252 -40 96 C-39.22749331 94.14652988 -38.45680658 92.29230065 -37.6875 90.4375 C-37.25824219 89.4165625 -36.82898438 88.395625 -36.38671875 87.34375 C-34.88518594 83.72315257 -33.44076345 80.08254388 -32 76.4375 C-30.23776998 71.98605406 -28.39426215 67.59203303 -26.375 63.25 C-24.8195013 59.90148928 -23.44176947 56.56246636 -22.22265625 53.078125 C-19.95451354 46.76760084 -17.42092214 40.5741982 -14.84594727 34.38427734 C-14.06399547 32.50359677 -13.28662953 30.62106835 -12.50976562 28.73828125 C-9.80623431 22.20680156 -7.01968807 15.72426439 -4.05761719 9.30541992 C-2.6456782 6.22764063 -1.31707187 3.11938074 0 0 Z " fill="#060506" transform="translate(438,86)"/>
<path d="M0 0 C0.33 0 0.66 0 1 0 C1.04125 1.216875 1.0825 2.43375 1.125 3.6875 C1.57902076 7.42494625 1.89561181 7.90025129 4.8125 10.6875 C5.864375 11.450625 6.91625 12.21375 8 13 C12 17.52631579 12 17.52631579 12 20 C12.56847656 20.24105469 13.13695312 20.48210937 13.72265625 20.73046875 C16.44788908 22.24968088 18.26690339 24.07418981 20.4375 26.3125 C21.21996094 27.11429688 22.00242187 27.91609375 22.80859375 28.7421875 C23.53175781 29.48726562 24.25492187 30.23234375 25 31 C25.99782139 31.98138669 26.99729425 32.96110431 28 33.9375 C30 36 30 36 31 38 C30.34 38 29.68 38 29 38 C29.02755371 38.80542236 29.05510742 39.61084473 29.08349609 40.44067383 C29.27090907 50.4080849 28.11889795 59.85685642 26.625 69.6875 C26.17435136 72.71146958 25.72966542 75.73626968 25.2890625 78.76171875 C25.17809738 79.52193832 25.06713226 80.2821579 24.95280457 81.06541443 C24.07759542 87.18235612 23.41038093 93.30885344 22.79081726 99.45620728 C21.80572813 109.12566857 20.57360057 118.76356448 19.34057617 128.40405273 C18.93052479 131.61715678 18.52669754 134.83100815 18.12304688 138.04492188 C17.86235207 140.09379748 17.60129846 142.14262747 17.33984375 144.19140625 C17.22003647 145.14954727 17.10022919 146.10768829 16.97679138 147.09486389 C16.86319778 147.97436203 16.74960419 148.85386017 16.63256836 149.76000977 C16.53423203 150.5332106 16.43589569 151.30641144 16.33457947 152.1030426 C16 154 16 154 15 156 C4.33134877 156.50892859 -5.55177791 154.97003514 -16 153 C-15.62465459 145.39431679 -15.21406744 137.84755936 -14.0625 130.3125 C-13.20835192 124.71657399 -12.58173008 119.1343698 -12.0625 113.5 C-11.94056274 112.17802612 -11.94056274 112.17802612 -11.81616211 110.8293457 C-11.64017349 108.91749206 -11.46431683 107.00562627 -11.28857422 105.09375 C-9.10685474 81.70394528 -6.56332876 58.35039472 -4 35 C-3.92396545 34.30708862 -3.84793091 33.61417725 -3.76959229 32.90026855 C-3.28601194 28.49577719 -2.80010303 24.09154774 -2.3125 19.6875 C-2.19326172 18.60960205 -2.07402344 17.5317041 -1.95117188 16.42114258 C-1.34103007 10.94176939 -0.69911151 5.4687508 0 0 Z " fill="#292325" transform="translate(311,139)"/>
<path d="M0 0 C5.57296008 2.89365235 10.62993613 6.55499584 15.49609375 10.515625 C16.51896484 11.34320313 16.51896484 11.34320313 17.5625 12.1875 C18.15675781 12.6928125 18.75101562 13.198125 19.36328125 13.71875 C21.25462834 14.89279447 21.25462834 14.89279447 23.65625 14.5390625 C26.60694539 13.5703101 28.84399737 12.27107042 31.4375 10.5625 C32.39269531 9.94117187 33.34789062 9.31984375 34.33203125 8.6796875 C37.96666984 6.19820734 41.48408329 3.57275979 44.9609375 0.875 C47.82906082 -0.61290015 49.22519852 -0.25307431 52.25 0.6875 C52.25 1.3475 52.25 2.0075 52.25 2.6875 C55.13019276 4.15402017 58.04308515 5.50797874 61 6.8125 C61.79921875 7.16570312 62.5984375 7.51890625 63.421875 7.8828125 C64.02515625 8.14835937 64.6284375 8.41390625 65.25 8.6875 C64.79753906 9.23792969 64.34507812 9.78835937 63.87890625 10.35546875 C62.12450021 12.86717236 61.2140782 15.11543235 60.1875 18 C57.38940418 25.53267869 54.1668787 32.85861553 50.90405273 40.20043945 C48.42418394 45.82428078 46.17899783 51.47679987 44.11889648 57.26757812 C43.10436838 60.09309164 41.98520546 62.86163522 40.8125 65.625 C40.3896875 66.62660156 39.966875 67.62820312 39.53125 68.66015625 C39.1084375 69.65917969 38.685625 70.65820312 38.25 71.6875 C37.43657726 73.64545024 36.62407917 75.60378488 35.8125 77.5625 C33.45996378 83.2204985 31.0292084 88.84340685 28.58203125 94.4609375 C27.32612885 97.50309405 26.24912275 100.55281155 25.25 103.6875 C24.59 103.6875 23.93 103.6875 23.25 103.6875 C20.27644311 98.07078142 17.90566226 92.37799222 15.69140625 86.421875 C13.68452769 81.12091602 11.4420199 75.91373059 9.25 70.6875 C8.41611579 68.68772962 7.58277468 66.68773268 6.75 64.6875 C6.3375 63.6975 5.925 62.7075 5.5 61.6875 C3.625 57.1875 3.625 57.1875 1.75 52.6875 C1.33782227 51.6987085 0.92564453 50.70991699 0.50097656 49.69116211 C-0.33685893 47.67947396 -1.17343638 45.66726142 -2.00878906 43.65454102 C-5.18034309 36.01952372 -8.42921291 28.41997788 -11.70703125 20.83007812 C-12.08730469 19.94642578 -12.46757812 19.06277344 -12.859375 18.15234375 C-13.19936523 17.364646 -13.53935547 16.57694824 -13.88964844 15.76538086 C-14.57926195 14.09985856 -15.17995339 12.39763982 -15.75 10.6875 C-16.41 10.0275 -17.07 9.3675 -17.75 8.6875 C-17.16992188 8.37296875 -16.58984375 8.0584375 -15.9921875 7.734375 C-14.82042969 7.09242187 -14.82042969 7.09242187 -13.625 6.4375 C-12.80128906 5.98761719 -11.97757812 5.53773437 -11.12890625 5.07421875 C-9.12537348 3.90631377 -7.38318968 2.67256554 -5.5625 1.25 C-2.75 -0.3125 -2.75 -0.3125 0 0 Z " fill="#CECED0" transform="translate(374.75,76.3125)"/>
<path d="M0 0 C7.0533881 3.66233613 13.30983639 8.6444495 19.55859375 13.5234375 C21.35951222 14.87808308 21.35951222 14.87808308 24.25 15.6875 C23.755 18.1625 23.755 18.1625 23.25 20.6875 C18.56734239 20.17866496 15.67844191 18.97208848 11.8125 16.3125 C7.70720463 13.58124475 3.85474032 11.42706857 -0.75 9.6875 C-0.96767642 18.64851244 -0.79404545 26.9090548 1.25 35.6875 C2.37535156 35.16349609 2.37535156 35.16349609 3.5234375 34.62890625 C4.54695313 34.17386719 5.57046875 33.71882813 6.625 33.25 C7.62273437 32.79753906 8.62046875 32.34507813 9.6484375 31.87890625 C12.78066872 30.84275601 15.2283925 30.40238199 18.47509766 30.11303711 C19.37072418 30.03097519 20.26635071 29.94891327 21.18911743 29.86436462 C21.86920868 29.8059993 22.54929993 29.74763397 23.25 29.6875 C23.27314367 37.86713488 23.29092544 46.04675613 23.30181217 54.22641563 C23.30703656 58.02432789 23.31412617 61.8222178 23.32543945 65.62011719 C23.33628408 69.28350673 23.34228019 72.94687473 23.34487724 76.61027908 C23.34672864 78.00975509 23.35034382 79.40922988 23.35573006 80.80869675 C23.36296126 82.76486822 23.36340823 84.72106126 23.36352539 86.67724609 C23.365746 87.7919931 23.36796661 88.90674011 23.37025452 90.05526733 C23.25 92.6875 23.25 92.6875 22.25 94.6875 C19.25 93.6875 19.25 93.6875 17.4375 90.5625 C15.40355179 86.22036338 13.64262808 81.7708907 11.88574219 77.31079102 C9.39934232 71.00708092 6.79951541 64.75256636 4.1875 58.5 C3.77612793 57.51515625 3.36475586 56.5303125 2.94091797 55.515625 C2.12267556 53.5578391 1.30398969 51.60023847 0.48486328 49.64282227 C-0.76824265 46.64384099 -2.01497341 43.6422552 -3.26171875 40.640625 C-6.02188879 34.01330522 -8.86074121 27.42075944 -11.70703125 20.83007812 C-12.08730469 19.94642578 -12.46757812 19.06277344 -12.859375 18.15234375 C-13.19936523 17.364646 -13.53935547 16.57694824 -13.88964844 15.76538086 C-14.57926195 14.09985856 -15.17995339 12.39763982 -15.75 10.6875 C-16.41 10.0275 -17.07 9.3675 -17.75 8.6875 C-17.16992188 8.37296875 -16.58984375 8.0584375 -15.9921875 7.734375 C-14.82042969 7.09242187 -14.82042969 7.09242187 -13.625 6.4375 C-12.80128906 5.98761719 -11.97757812 5.53773437 -11.12890625 5.07421875 C-9.12537348 3.90631377 -7.38318968 2.67256554 -5.5625 1.25 C-2.75 -0.3125 -2.75 -0.3125 0 0 Z " fill="#EDEDEE" transform="translate(374.75,76.3125)"/>
<path d="M0 0 C3.76792433 0.48660803 6.79045696 1.71912969 10.1875 3.375 C17.04415444 6.56435535 23.82110285 8.63414895 31.25 10 C35.24589575 10.7665083 38.54346239 11.75325056 42 14 C43.86872855 16.9851542 44.32932835 19.54489318 44.59765625 23.02734375 C44.67693359 23.98447266 44.75621094 24.94160156 44.83789062 25.92773438 C44.91201172 26.92095703 44.98613281 27.91417969 45.0625 28.9375 C45.21760406 30.90514242 45.37507789 32.87259977 45.53515625 34.83984375 C45.600979 35.70988037 45.66680176 36.57991699 45.73461914 37.47631836 C46.00345799 40.03288431 46.48743585 42.48233251 47 45 C47.43027539 48.42982875 47.73829853 51.87116147 48.0625 55.3125 C48.15337891 56.22451172 48.24425781 57.13652344 48.33789062 58.07617188 C48.84666986 63.4126157 49.09425945 68.63977935 49 74 C48.67 74 48.34 74 48 74 C47.89042969 73.16855469 47.78085937 72.33710938 47.66796875 71.48046875 C47.50941406 70.39378906 47.35085938 69.30710937 47.1875 68.1875 C47.03667969 67.10855469 46.88585937 66.02960938 46.73046875 64.91796875 C45.96756563 61.87043597 45.29820712 60.99597714 43 59 C43 58.34 43 57.68 43 57 C42.41347656 56.91492188 41.82695312 56.82984375 41.22265625 56.7421875 C38.37105969 55.78998478 37.32989097 54.43651111 35.4375 52.125 C33.37608537 49.63661084 31.32462871 47.24690557 29 45 C28.15695312 45.86625 27.31390625 46.7325 26.4453125 47.625 C25.33880643 48.75026041 24.23202112 49.87524628 23.125 51 C22.56941406 51.57234375 22.01382813 52.1446875 21.44140625 52.734375 C19.99865596 54.19450782 18.5025626 55.60149298 17 57 C16.34 57 15.68 57 15 57 C14.7525 57.5775 14.505 58.155 14.25 58.75 C12.81700012 61.32939979 11.21575324 63.06121592 9 65 C8.34 65 7.68 65 7 65 C6.79375 65.53625 6.5875 66.0725 6.375 66.625 C4.46749574 69.91978009 1.95180616 72.59363628 -1 75 C-1.66 75 -2.32 75 -3 75 C-3.33 75.99 -3.66 76.98 -4 78 C-4.66 78 -5.32 78 -6 78 C-6.66 79.32 -7.32 80.64 -8 82 C-8.66 81.67 -9.32 81.34 -10 81 C-9.505 80.01 -9.505 80.01 -9 79 C-8.34 79 -7.68 79 -7 79 C-6.7525 78.38125 -6.505 77.7625 -6.25 77.125 C-4.77229238 74.61289704 -3.56044823 74.23892656 -1 73 C-0.67 72.01 -0.34 71.02 0 70 C0.66 70 1.32 70 2 70 C2.226875 69.4225 2.45375 68.845 2.6875 68.25 C4.34400513 65.41027692 6.42567988 64.04775464 9 62 C10.55562985 60.28880717 12.03223087 58.52395587 13.515625 56.75 C15.56187506 54.33757888 17.66686053 52.13871118 20 50 C20.66 50 21.32 50 22 50 C22.28875 49.360625 22.5775 48.72125 22.875 48.0625 C24 46 24 46 26 45 C25.61304538 41.51740845 24.11870569 39.9960343 21.67407227 37.62573242 C19.6101619 35.62141871 17.58993685 33.57631876 15.56640625 31.53125 C13.89850245 29.85410207 12.2305319 28.17702052 10.5625 26.5 C9.72912109 25.65824219 8.89574219 24.81648438 8.03710938 23.94921875 C3.84381306 19.73934814 -0.34397011 15.69454079 -5 12 C-4.35758106 10.186287 -3.71096881 8.37405876 -3.0625 6.5625 C-2.70285156 5.55316406 -2.34320313 4.54382813 -1.97265625 3.50390625 C-1 1 -1 1 0 0 Z " fill="#080808" transform="translate(438,86)"/>
<path d="M0 0 C1.34262065 0.29369827 2.67696283 0.6278958 4 1 C5.05316406 1.04898438 6.10632813 1.09796875 7.19140625 1.1484375 C12.21221263 2.27103831 14.45174974 4.5576774 17.9375 8.1875 C18.52595703 8.75275391 19.11441406 9.31800781 19.72070312 9.90039062 C20.27564453 10.46306641 20.83058594 11.02574219 21.40234375 11.60546875 C22.15245728 12.36573364 22.15245728 12.36573364 22.91772461 13.14135742 C24.58356585 16.00218517 24.51779292 17.73943269 24 21 C22.2364828 23.34878847 20.60506306 25.21450721 18.5234375 27.23828125 C17.96057037 27.80451706 17.39770325 28.37075287 16.81777954 28.95414734 C15.62618307 30.1454454 14.42711278 31.32930835 13.22119141 32.50610352 C11.38270294 34.3049631 9.57531523 36.13126755 7.76953125 37.96289062 C6.60591316 39.11894807 5.44060193 40.27330431 4.2734375 41.42578125 C3.46681168 42.24288322 3.46681168 42.24288322 2.64389038 43.07649231 C-0.75500648 46.35129452 -3.23161117 47.89233635 -8 48 C-9.87109375 46.55859375 -9.87109375 46.55859375 -11.4375 44.4375 C-13.73522667 41.48985956 -15.88942678 39.18431175 -18.875 36.9375 C-21.52685987 34.73550922 -21.94715954 34.20003888 -22.875 30.6875 C-22.91625 29.470625 -22.9575 28.25375 -23 27 C-23.16757812 26.28585938 -23.33515625 25.57171875 -23.5078125 24.8359375 C-24.24271775 21.44137513 -24.62365329 19.08979688 -22.85546875 16 C-21.01416505 13.86115542 -19.04158656 11.94862465 -17 10 C-16.19175781 9.10152344 -15.38351562 8.20304688 -14.55078125 7.27734375 C-13.70902344 6.36082031 -12.86726563 5.44429687 -12 4.5 C-11.21625 3.6440625 -10.4325 2.788125 -9.625 1.90625 C-6.2281037 -0.56054374 -4.1088584 -0.3827828 0 0 Z " fill="#232021" transform="translate(385,193)"/>
<path d="M0 0 C3.3 0 6.6 0 10 0 C12.63117213 4.19038524 14.54434274 8.28886122 16.25 12.9375 C18.23507275 18.25356169 20.51652194 23.31194863 23.0625 28.375 C23.55508301 29.35521118 23.55508301 29.35521118 24.05761719 30.35522461 C25.70736116 33.59249693 27.43491809 36.73815554 29.30859375 39.8515625 C29.86675781 40.89054687 30.42492187 41.92953125 31 43 C30.67 43.66 30.34 44.32 30 45 C28.515 45.495 28.515 45.495 27 46 C26.67 46.66 26.34 47.32 26 48 C25.34 48 24.68 48 24 48 C23.5978125 48.8971875 23.5978125 48.8971875 23.1875 49.8125 C22.00082594 51.99847854 20.90400887 53.41332594 19 55 C18.34 55 17.68 55 17 55 C16.67 55.99 16.34 56.98 16 58 C15.34 58 14.68 58 14 58 C13.67 58.99 13.34 59.98 13 61 C11.53704681 62.26789276 10.06958558 63.53194464 8.55859375 64.7421875 C5.1851066 67.46465081 2.71761628 69.99222867 1 74 C-2.2562681 66.06284651 -1.06752156 58.49883932 0.5 50.3125 C2.87394023 36.62977231 3.42981891 22.06917502 0.4375 8.4375 C-0.07347434 5.59064299 -0.06712191 2.88624192 0 0 Z " fill="#2E282A" transform="translate(138,49)"/>
<path d="M0 0 C7.22895562 1.96039474 12.77075829 5.24140132 18.88671875 9.453125 C22.71950691 11.35749653 23.96379099 11.34707224 28 10 C30.99396318 8.46331404 33.83777017 6.72503545 36.6875 4.9375 C38.18773743 4.00319751 39.69150711 3.07453631 41.19921875 2.15234375 C41.85752686 1.73976318 42.51583496 1.32718262 43.1940918 0.90209961 C45 0 45 0 48 0 C50.65547571 7.96642714 49.15245945 17.06280576 47 25 C42.32707551 24.66015095 38.87025954 24.07418041 34.6875 21.9375 C28.92896319 19.21708778 22.99784062 18.9300535 16.83984375 20.578125 C15.54409699 21.06242001 14.26034603 21.5802953 12.9921875 22.1328125 C10.70000072 23.13058792 8.37557282 23.91044347 6 24.6875 C5.236875 24.93886719 4.47375 25.19023438 3.6875 25.44921875 C3.130625 25.63097656 2.57375 25.81273438 2 26 C-0.79110002 17.41072195 -2.55469456 8.87962383 0 0 Z " fill="#080808" transform="translate(374,86)"/>
<path d="M0 0 C4.32653454 1.05042455 6.46139497 3.96851632 8.87841797 7.45605469 C9.53841797 7.78605469 10.19841797 8.11605469 10.87841797 8.45605469 C10.87841797 9.11605469 10.87841797 9.77605469 10.87841797 10.45605469 C11.53841797 10.45605469 12.19841797 10.45605469 12.87841797 10.45605469 C12.87841797 11.11605469 12.87841797 11.77605469 12.87841797 12.45605469 C13.53841797 12.45605469 14.19841797 12.45605469 14.87841797 12.45605469 C14.87841797 13.11605469 14.87841797 13.77605469 14.87841797 14.45605469 C17.18841797 14.45605469 19.49841797 14.45605469 21.87841797 14.45605469 C21.87841797 14.78605469 21.87841797 15.11605469 21.87841797 15.45605469 C21.31445312 15.52598633 20.75048828 15.59591797 20.16943359 15.66796875 C17.57026672 15.99898468 14.97459238 16.35236239 12.37841797 16.70605469 C11.49154297 16.815625 10.60466797 16.92519531 9.69091797 17.03808594 C4.42743723 17.77342516 0.19933087 18.93796106 -4.44775391 21.54492188 C-11.39251582 25.3252386 -20.51846728 23.87114951 -27.87548828 21.96777344 C-31.90204853 21.05041797 -36.0113691 20.78212586 -40.12158203 20.45605469 C-40.12158203 20.12605469 -40.12158203 19.79605469 -40.12158203 19.45605469 C-36.82158203 19.45605469 -33.52158203 19.45605469 -30.12158203 19.45605469 C-30.12158203 18.13605469 -30.12158203 16.81605469 -30.12158203 15.45605469 C-28.61767578 13.81542969 -28.61767578 13.81542969 -26.55908203 12.20605469 C-23.4030757 9.68889393 -21.38504265 7.37948104 -19.18408203 4.01855469 C-14.43848439 -1.61890701 -6.76889806 -0.91458941 0 0 Z " fill="#262123" transform="translate(224.12158203125,360.5439453125)"/>
<path d="M0 0 C0.680625 0.70125 1.36125 1.4025 2.0625 2.125 C4.09684011 4.17083356 6.21432517 6.03717547 8.4375 7.875 C11.50300451 10.45612826 13.99385137 13.26768235 16.5390625 16.3515625 C18.13944431 18.24168659 18.13944431 18.24168659 20.9375 20.4375 C24.17725876 23.14831855 26.72100206 26.06798412 29.38671875 29.328125 C30.99862269 31.25681471 30.99862269 31.25681471 34 32 C34.680625 31.13375 35.36125 30.2675 36.0625 29.375 C37.5890848 27.46126977 38.84275498 26.09855722 40.92578125 24.79296875 C43.24405153 23.3295316 44.54247794 22.34847026 46 20 C46.3067258 14.88252216 45.76561985 10.05695126 45 5 C45.66 5.33 46.32 5.66 47 6 C47.93425172 8.80275516 48.25860947 11.00659911 48.5 13.9296875 C48.5825 14.89003906 48.665 15.85039063 48.75 16.83984375 C48.8325 17.84144531 48.915 18.84304687 49 19.875 C49.16409052 21.85177803 49.33067531 23.82835093 49.5 25.8046875 C49.60828125 27.11928955 49.60828125 27.11928955 49.71875 28.46044922 C50.00206133 31.01861283 50.48850167 33.47881302 51 36 C51.43027539 39.42982875 51.73829853 42.87116147 52.0625 46.3125 C52.15337891 47.22451172 52.24425781 48.13652344 52.33789062 49.07617188 C52.84666986 54.4126157 53.09425945 59.63977935 53 65 C52.67 65 52.34 65 52 65 C51.89042969 64.16855469 51.78085937 63.33710938 51.66796875 62.48046875 C51.43013672 60.85044922 51.43013672 60.85044922 51.1875 59.1875 C51.03667969 58.10855469 50.88585937 57.02960938 50.73046875 55.91796875 C49.96756563 52.87043597 49.29820712 51.99597714 47 50 C47 49.34 47 48.68 47 48 C46.41347656 47.91492188 45.82695312 47.82984375 45.22265625 47.7421875 C42.37105969 46.78998478 41.32989097 45.43651111 39.4375 43.125 C37.37608537 40.63661084 35.32462871 38.24690557 33 36 C32.15695312 36.86625 31.31390625 37.7325 30.4453125 38.625 C29.33880643 39.75026041 28.23202112 40.87524628 27.125 42 C26.56941406 42.57234375 26.01382813 43.1446875 25.44140625 43.734375 C23.99865596 45.19450782 22.5025626 46.60149298 21 48 C20.34 48 19.68 48 19 48 C18.7525 48.5775 18.505 49.155 18.25 49.75 C16.81700012 52.32939979 15.21575324 54.06121592 13 56 C12.34 56 11.68 56 11 56 C10.79375 56.53625 10.5875 57.0725 10.375 57.625 C8.46749574 60.91978009 5.95180616 63.59363628 3 66 C2.34 66 1.68 66 1 66 C0.67 66.99 0.34 67.98 0 69 C-0.66 69 -1.32 69 -2 69 C-2.66 70.32 -3.32 71.64 -4 73 C-4.66 72.67 -5.32 72.34 -6 72 C-5.505 71.01 -5.505 71.01 -5 70 C-4.34 70 -3.68 70 -3 70 C-2.7525 69.38125 -2.505 68.7625 -2.25 68.125 C-0.77229238 65.61289704 0.43955177 65.23892656 3 64 C3.33 63.01 3.66 62.02 4 61 C4.66 61 5.32 61 6 61 C6.226875 60.4225 6.45375 59.845 6.6875 59.25 C8.34400513 56.41027692 10.42567988 55.04775464 13 53 C14.55562985 51.28880717 16.03223087 49.52395587 17.515625 47.75 C19.56187506 45.33757888 21.66686053 43.13871118 24 41 C24.66 41 25.32 41 26 41 C26.28875 40.360625 26.5775 39.72125 26.875 39.0625 C28 37 28 37 30 36 C29.61304538 32.51740845 28.11870569 30.9960343 25.67407227 28.62573242 C23.6101619 26.62141871 21.58993685 24.57631876 19.56640625 22.53125 C17.89850245 20.85410207 16.2305319 19.17702052 14.5625 17.5 C13.72912109 16.65824219 12.89574219 15.81648438 12.03710938 14.94921875 C7.84381306 10.73934814 3.65602989 6.69454079 -1 3 C-0.67 2.01 -0.34 1.02 0 0 Z " fill="#1E1D1E" transform="translate(434,95)"/>
<path d="M0 0 C1.34262065 0.29369827 2.67696283 0.6278958 4 1 C5.05316406 1.04898438 6.10632813 1.09796875 7.19140625 1.1484375 C12.21221263 2.27103831 14.45174974 4.5576774 17.9375 8.1875 C18.52595703 8.75275391 19.11441406 9.31800781 19.72070312 9.90039062 C20.27564453 10.46306641 20.83058594 11.02574219 21.40234375 11.60546875 C22.15245728 12.36573364 22.15245728 12.36573364 22.91772461 13.14135742 C24.58356585 16.00218517 24.51779292 17.73943269 24 21 C22.2364828 23.34878847 20.60506306 25.21450721 18.5234375 27.23828125 C17.96057037 27.80451706 17.39770325 28.37075287 16.81777954 28.95414734 C15.62618307 30.1454454 14.42711278 31.32930835 13.22119141 32.50610352 C11.38270294 34.3049631 9.57531523 36.13126755 7.76953125 37.96289062 C6.60591316 39.11894807 5.44060193 40.27330431 4.2734375 41.42578125 C3.46681168 42.24288322 3.46681168 42.24288322 2.64389038 43.07649231 C-0.75500648 46.35129452 -3.23161117 47.89233635 -8 48 C-9.87109375 46.55859375 -9.87109375 46.55859375 -11.4375 44.4375 C-13.73522667 41.48985956 -15.88942678 39.18431175 -18.875 36.9375 C-21.52685987 34.73550922 -21.94715954 34.20003888 -22.875 30.6875 C-22.91625 29.470625 -22.9575 28.25375 -23 27 C-23.16757812 26.28585938 -23.33515625 25.57171875 -23.5078125 24.8359375 C-24.24271775 21.44137513 -24.62365329 19.08979688 -22.85546875 16 C-21.01416505 13.86115542 -19.04158656 11.94862465 -17 10 C-16.19175781 9.10152344 -15.38351562 8.20304688 -14.55078125 7.27734375 C-13.70902344 6.36082031 -12.86726563 5.44429687 -12 4.5 C-11.21625 3.6440625 -10.4325 2.788125 -9.625 1.90625 C-6.2281037 -0.56054374 -4.1088584 -0.3827828 0 0 Z M-8.3671875 4.125 C-9.98100315 5.93989811 -11.55431819 7.79173917 -13.08203125 9.6796875 C-15 12 -15 12 -17 13 C-17 13.66 -17 14.32 -17 15 C-17.66 15 -18.32 15 -19 15 C-21.20379798 18.30569698 -21.19029903 18.69427522 -20.625 22.375 C-20.17465052 25.62281452 -19.89395227 28.71252034 -20 32 C-19.34 32 -18.68 32 -18 32 C-17.7525 32.763125 -17.505 33.52625 -17.25 34.3125 C-15.87869328 37.26080945 -14.7648921 38.35834532 -12 40 C-11.34 40 -10.68 40 -10 40 C-9.67 40.99 -9.34 41.98 -9 43 C-4.89776415 44.01540112 -4.89776415 44.01540112 -1 43 C-0.71055743 41.44753531 -0.49307118 39.88135871 -0.3125 38.3125 C0.57548758 33.25891213 2.21674911 31.18302764 6.34375 28.25390625 C8.28705566 26.92535768 8.28705566 26.92535768 10 24 C12.1640625 23.48828125 12.1640625 23.48828125 14.625 23.3125 C15.44226563 23.24675781 16.25953125 23.18101562 17.1015625 23.11328125 C18.04128906 23.05720703 18.04128906 23.05720703 19 23 C19 22.34 19 21.68 19 21 C19.99 20.67 20.98 20.34 22 20 C21.67 18.35 21.34 16.7 21 15 C20.01 14.67 19.02 14.34 18 14 C18 13.34 18 12.68 18 12 C17.34 12 16.68 12 16 12 C16 11.34 16 10.68 16 10 C15.34 10 14.68 10 14 10 C13.731875 9.401875 13.46375 8.80375 13.1875 8.1875 C11.57635245 5.15931434 11.57635245 5.15931434 9 3 C5.51645774 2.826684 5.51645774 2.826684 3.10546875 3 C1 3 1 3 -2.4375 1.875 C-6.08774215 1.62171369 -6.08774215 1.62171369 -8.3671875 4.125 Z " fill="#4B4849" transform="translate(385,193)"/>
<path d="M0 0 C0.33 0 0.66 0 1 0 C1.05534912 0.61931396 1.11069824 1.23862793 1.16772461 1.87670898 C1.42333022 4.73039529 1.68040676 7.58394734 1.9375 10.4375 C2.02451172 11.41138672 2.11152344 12.38527344 2.20117188 13.38867188 C2.73211128 19.26833412 3.32675665 25.13489806 4 31 C0.75165474 32.87300265 -2.0805147 33.4419406 -5.7890625 33.88671875 C-6.89507812 34.02013672 -8.00109375 34.15355469 -9.140625 34.29101562 C-10.29046875 34.42185547 -11.4403125 34.55269531 -12.625 34.6875 C-13.78257812 34.82994141 -14.94015625 34.97238281 -16.1328125 35.11914062 C-24.74051709 36.12974146 -24.74051709 36.12974146 -27 35 C-25.72318657 31.8660034 -23.97961473 29.86513286 -21.546875 27.546875 C-19.63600583 25.63600583 -17.89373095 23.60545281 -16.125 21.5625 C-11.9978889 16.87472475 -7.45022221 12.99886549 -2.625 9.0625 C-0.36345399 6.19207622 -0.27528443 3.57869764 0 0 Z " fill="#0C0B0B" transform="translate(498,260)"/>
<path d="M0 0 C1.0934508 3.39059951 0.92711046 6.05510581 0.4765625 9.5703125 C0.3425 10.63121094 0.2084375 11.69210937 0.0703125 12.78515625 C-0.07664062 13.88730469 -0.22359375 14.98945313 -0.375 16.125 C-0.51421875 17.23488281 -0.6534375 18.34476562 -0.796875 19.48828125 C-1.85956743 27.71913485 -1.85956743 27.71913485 -3 30 C-12.25599658 30.27675737 -20.87995448 29.53140195 -30 28 C-29.37351562 27.71382813 -28.74703125 27.42765625 -28.1015625 27.1328125 C-25.63556102 25.8035552 -24.63630484 24.23132478 -23 22 C-22.34 22 -21.68 22 -21 22 C-21 21.34 -21 20.68 -21 20 C-19.35511706 18.31183067 -17.68662458 16.64646685 -16 15 C-15.34 14.01 -14.68 13.02 -14 12 C-13.34 12 -12.68 12 -12 12 C-11.67 11.01 -11.34 10.02 -11 9 C-7.55555556 6 -7.55555556 6 -5 6 C-5 5.34 -5 4.68 -5 4 C-3.37373596 2.61767557 -1.7074998 1.28062485 0 0 Z " fill="#322B2D" transform="translate(329,265)"/>
<path d="M0 0 C5.01656959 1.4333056 7.01452882 3.90563952 10 8 C10 8.66 10 9.32 10 10 C8.68 9.67 7.36 9.34 6 9 C5.9175 10.11375 5.835 11.2275 5.75 12.375 C5.5025 13.57125 5.255 14.7675 5 16 C3 17.25 3 17.25 1 18 C0.67 18.99 0.34 19.98 0 21 C-2.3125 23.75 -2.3125 23.75 -5 26 C-7.85002619 26.08636443 -8.90989969 25.06693166 -11.1875 23.375 C-13.6472379 20.15189516 -14.07092769 18.04287831 -14 14 C-11.6875 11.1875 -11.6875 11.1875 -9 9 C-8.34 8.34 -7.68 7.68 -7 7 C-4.375 6.375 -4.375 6.375 -2 6 C-1.34 4.02 -0.68 2.04 0 0 Z " fill="#3E3C3D" transform="translate(199,220)"/>
<path d="M0 0 C3.3 0 6.6 0 10 0 C11.04889967 4.19559867 10.80003093 6.35049194 10.125 10.5625 C8.75504295 19.67213879 8.37613704 28.80443914 8 38 C7.67 38 7.34 38 7 38 C7 33.05 7 28.1 7 23 C5.68 22.34 4.36 21.68 3 21 C2.175 20.13375 1.35 19.2675 0.5 18.375 C-1.90861986 15.54083369 -1.90861986 15.54083369 -6 16 C-4.25192871 10.53262809 -2.34205919 5.24175152 0 0 Z " fill="#2B2729" transform="translate(203,49)"/>
<path d="M0 0 C3.24271506 0.5590888 4.93057424 1.4132178 7 4 C7 4.66 7 5.32 7 6 C7.66 6 8.32 6 9 6 C9 6.66 9 7.32 9 8 C9.66 8 10.32 8 11 8 C11 8.66 11 9.32 11 10 C12.32 10.66 13.64 11.32 15 12 C14.67 13.65 14.34 15.3 14 17 C13.34 17 12.68 17 12 17 C12 17.66 12 18.32 12 19 C11.39671875 19.04898438 10.7934375 19.09796875 10.171875 19.1484375 C9.37265625 19.22320312 8.5734375 19.29796875 7.75 19.375 C6.96109375 19.44460937 6.1721875 19.51421875 5.359375 19.5859375 C2.914123 20.01507113 1.15163097 20.78600638 -1 22 C-1.22333047 19.45886142 -1.42902091 16.91827416 -1.625 14.375 C-1.68945312 13.66214844 -1.75390625 12.94929687 -1.8203125 12.21484375 C-2.15497142 7.65511601 -1.78239103 4.31311418 0 0 Z " fill="#050505" transform="translate(392,197)"/>
<path d="M0 0 C2.70435651 4.05653477 2.51483704 7.246338 2 12 C1.0625 14.5625 1.0625 14.5625 -1 16 C-4.02952696 16.3169186 -6.96654324 16.22894013 -10 16 C-10 15.34 -10 14.68 -10 14 C-10.99 13.67 -11.98 13.34 -13 13 C-14.55588235 5.08529412 -14.55588235 5.08529412 -12.6875 1.4375 C-8.66961975 -0.71159874 -4.46333037 -0.86311789 0 0 Z " fill="#575455" transform="translate(388,206)"/>
<path d="M0 0 C0.680625 0.70125 1.36125 1.4025 2.0625 2.125 C4.09684011 4.17083356 6.21432517 6.03717547 8.4375 7.875 C11.50300451 10.45612826 13.99385137 13.26768235 16.5390625 16.3515625 C18.13944431 18.24168659 18.13944431 18.24168659 20.9375 20.4375 C24.17725876 23.14831855 26.72100206 26.06798412 29.38671875 29.328125 C30.99862269 31.25681471 30.99862269 31.25681471 34 32 C34.99 31.01 35.98 30.02 37 29 C37 32 37 32 35.56298828 33.80932617 C34.90540527 34.46392822 34.24782227 35.11853027 33.5703125 35.79296875 C32.85746094 36.50517578 32.14460938 37.21738281 31.41015625 37.95117188 C30.27900391 39.0581543 30.27900391 39.0581543 29.125 40.1875 C28.37863281 40.93708984 27.63226563 41.68667969 26.86328125 42.45898438 C21.26680505 48 21.26680505 48 19 48 C18.7525 48.5775 18.505 49.155 18.25 49.75 C16.81700012 52.32939979 15.21575324 54.06121592 13 56 C12.34 56 11.68 56 11 56 C10.79375 56.53625 10.5875 57.0725 10.375 57.625 C8.46749574 60.91978009 5.95180616 63.59363628 3 66 C2.34 66 1.68 66 1 66 C0.67 66.99 0.34 67.98 0 69 C-0.66 69 -1.32 69 -2 69 C-2.66 70.32 -3.32 71.64 -4 73 C-4.66 72.67 -5.32 72.34 -6 72 C-5.505 71.01 -5.505 71.01 -5 70 C-4.34 70 -3.68 70 -3 70 C-2.7525 69.38125 -2.505 68.7625 -2.25 68.125 C-0.77229238 65.61289704 0.43955177 65.23892656 3 64 C3.33 63.01 3.66 62.02 4 61 C4.66 61 5.32 61 6 61 C6.226875 60.4225 6.45375 59.845 6.6875 59.25 C8.34400513 56.41027692 10.42567988 55.04775464 13 53 C14.55562985 51.28880717 16.03223087 49.52395587 17.515625 47.75 C19.56187506 45.33757888 21.66686053 43.13871118 24 41 C24.66 41 25.32 41 26 41 C26.28875 40.360625 26.5775 39.72125 26.875 39.0625 C28 37 28 37 30 36 C29.61304538 32.51740845 28.11870569 30.9960343 25.67407227 28.62573242 C23.6101619 26.62141871 21.58993685 24.57631876 19.56640625 22.53125 C17.89850245 20.85410207 16.2305319 19.17702052 14.5625 17.5 C13.72912109 16.65824219 12.89574219 15.81648438 12.03710938 14.94921875 C7.84381306 10.73934814 3.65602989 6.69454079 -1 3 C-0.67 2.01 -0.34 1.02 0 0 Z " fill="#181818" transform="translate(434,95)"/>
<path d="M0 0 C-0.33 0.99 -0.66 1.98 -1 3 C-1.66 3 -2.32 3 -3 3 C-3 3.99 -3 4.98 -3 6 C-1.68 5.34 -0.36 4.68 1 4 C0.67 4.99 0.34 5.98 0 7 C-0.66 7 -1.32 7 -2 7 C-2 7.66 -2 8.32 -2 9 C-2.66 9 -3.32 9 -4 9 C-4 9.66 -4 10.32 -4 11 C-4.66 11 -5.32 11 -6 11 C-6.33 11.99 -6.66 12.98 -7 14 C-7.66 14 -8.32 14 -9 14 C-9.268125 14.61875 -9.53625 15.2375 -9.8125 15.875 C-11 18 -11 18 -14 20 C-15.19232613 22.05003955 -15.19232613 22.05003955 -16 24 C-15.75354584 19.32385653 -15.41842867 14.66394887 -15 10 C-14.93554688 9.21367188 -14.87109375 8.42734375 -14.8046875 7.6171875 C-14.5 5.8125 -14.5 5.8125 -13 3 C-8.73012578 0.68924454 -4.82565944 0 0 0 Z " fill="#2C282A" transform="translate(330,96)"/>
<path d="M0 0 C4.32653454 1.05042455 6.46139497 3.96851632 8.87841797 7.45605469 C9.53841797 7.78605469 10.19841797 8.11605469 10.87841797 8.45605469 C10.87841797 9.11605469 10.87841797 9.77605469 10.87841797 10.45605469 C11.53841797 10.45605469 12.19841797 10.45605469 12.87841797 10.45605469 C12.87841797 11.11605469 12.87841797 11.77605469 12.87841797 12.45605469 C13.53841797 12.45605469 14.19841797 12.45605469 14.87841797 12.45605469 C14.87841797 13.11605469 14.87841797 13.77605469 14.87841797 14.45605469 C17.18841797 14.45605469 19.49841797 14.45605469 21.87841797 14.45605469 C21.87841797 14.78605469 21.87841797 15.11605469 21.87841797 15.45605469 C13.95841797 15.95105469 13.95841797 15.95105469 5.87841797 16.45605469 C5.87841797 16.12605469 5.87841797 15.79605469 5.87841797 15.45605469 C7.85841797 15.12605469 9.83841797 14.79605469 11.87841797 14.45605469 C7.47578462 8.80442248 7.47578462 8.80442248 1.87841797 4.45605469 C-0.53214736 4.23728763 -2.8159391 4.2651461 -5.23095703 4.41308594 C-5.85486328 4.42726563 -6.47876953 4.44144531 -7.12158203 4.45605469 C-7.61658203 3.96105469 -7.61658203 3.96105469 -8.12158203 3.45605469 C-10.35114818 2.79748177 -10.35114818 2.79748177 -13.12158203 3.45605469 C-15.81438731 5.45869367 -18.06491635 7.83985586 -20.37158203 10.26855469 C-21.00837891 10.91115234 -21.64517578 11.55375 -22.30126953 12.21582031 C-25.93842217 15.86305156 -25.93842217 15.86305156 -28.12158203 20.45605469 C-26.80158203 20.78605469 -25.48158203 21.11605469 -24.12158203 21.45605469 C-29.40158203 21.12605469 -34.68158203 20.79605469 -40.12158203 20.45605469 C-40.12158203 20.12605469 -40.12158203 19.79605469 -40.12158203 19.45605469 C-36.82158203 19.45605469 -33.52158203 19.45605469 -30.12158203 19.45605469 C-30.12158203 18.13605469 -30.12158203 16.81605469 -30.12158203 15.45605469 C-28.61767578 13.81542969 -28.61767578 13.81542969 -26.55908203 12.20605469 C-23.4030757 9.68889393 -21.38504265 7.37948104 -19.18408203 4.01855469 C-14.43848439 -1.61890701 -6.76889806 -0.91458941 0 0 Z " fill="#4F4D4E" transform="translate(224.12158203125,360.5439453125)"/>
<path d="M0 0 C4.13229846 2.25878837 7.46514678 5.03665232 10.8125 8.3125 C11.56563477 9.00375977 11.56563477 9.00375977 12.33398438 9.70898438 C14.6433385 11.96806684 15.92773686 13.73906956 16.79296875 16.86328125 C15.54222848 21.81079079 12.15974259 24.47242851 8.5 27.875 C7.78457031 28.56335938 7.06914062 29.25171875 6.33203125 29.9609375 C4.56743993 31.65494516 2.79042076 33.33338493 1 35 C-1 31.25 -1 31.25 -1 29 C-1.99 28.67 -2.98 28.34 -4 28 C-3.38125 27.7525 -2.7625 27.505 -2.125 27.25 C0.45868886 25.98960746 0.45868886 25.98960746 2 22 C4.97 22 7.94 22 11 22 C11 21.34 11 20.68 11 20 C11.66 19.67 12.32 19.34 13 19 C12.65555119 16.52733235 12.65555119 16.52733235 12 14 C11.34 13.67 10.68 13.34 10 13 C10 12.34 10 11.68 10 11 C9.34 11 8.68 11 8 11 C8 10.34 8 9.68 8 9 C7.34 9 6.68 9 6 9 C4.71569138 7.52304509 3.43419292 6.04193862 2.21875 4.5078125 C0.93215329 2.86186905 0.93215329 2.86186905 -1 1 C-0.67 0.67 -0.34 0.34 0 0 Z " fill="#3C3B3B" transform="translate(393,194)"/>
<path d="M0 0 C2.5 1.875 2.5 1.875 4 4 C4 4.66 4 5.32 4 6 C4.66 6.33 5.32 6.66 6 7 C-0.8545256 10.87730741 -7.15147262 12.01347351 -15 11 C-15.99 10.34 -16.98 9.68 -18 9 C-16.35 9 -14.7 9 -13 9 C-12.5978125 7.6078125 -12.5978125 7.6078125 -12.1875 6.1875 C-9.85971696 -0.06075974 -6.62167615 -1.23906616 0 0 Z " fill="#686465" transform="translate(218,373)"/>
<path d="M0 0 C0.33 0 0.66 0 1 0 C1.33801152 2.54112232 1.67053379 5.08276746 2 7.625 C2.09539062 8.33785156 2.19078125 9.05070313 2.2890625 9.78515625 C2.81606101 13.88821609 3.10466984 17.85245742 3 22 C2.34 22 1.68 22 1 22 C0.34 23.32 -0.32 24.64 -1 26 C-3.0625 25.0625 -3.0625 25.0625 -5 23 C-5.05989746 19.92889402 -4.58052245 17.00988272 -4 14 C-5.98 14.99 -7.96 15.98 -10 17 C-9.44225728 13.76509224 -8.62788492 12.02144994 -6 10 C-5.01 10 -4.02 10 -3 10 C-2.87625 9.46375 -2.7525 8.9275 -2.625 8.375 C-1.87793984 5.5361714 -0.94696636 2.77776798 0 0 Z " fill="#504E4F" transform="translate(213,202)"/>
<path d="M0 0 C3.67298695 0.96197277 6.3407083 2.09385357 9.1875 4.5625 C11.80981981 7.14902427 11.80981981 7.14902427 15 8 C14.67 9.65 14.34 11.3 14 13 C9.27162143 12.49164708 6.34729788 11.23762487 2.4375 8.5625 C-0.97071618 6.24684674 -4.11626127 4.3975841 -8 3 C-5.35261084 1.5393715 -4.10551666 1 -1 1 C-0.67 0.67 -0.34 0.34 0 0 Z " fill="#E2DFE0" transform="translate(384,84)"/>
<path d="M0 0 C0 4.62469174 -2.87628082 6.78895103 -6 10 C-7.17267295 11.05833069 -8.36099859 12.09951472 -9.5625 13.125 C-13.52147839 16.51951467 -17.31612741 20.06158793 -21.0625 23.6875 C-21.6594165 24.24646973 -22.25633301 24.80543945 -22.87133789 25.38134766 C-24.74924074 27.16407101 -24.74924074 27.16407101 -27 30 C-26.72905668 32.15698309 -26.72905668 32.15698309 -26 34 C-26.5775 33.79375 -27.155 33.5875 -27.75 33.375 C-30.51967567 32.91338739 -31.64561267 33.57055055 -34 35 C-33.01 33.35 -32.02 31.7 -31 30 C-32.32 29.34 -33.64 28.68 -35 28 C-34.33333333 22 -33.66666667 16 -33 10 C-32.67 10 -32.34 10 -32 10 C-31.32431853 14.27931599 -30.92649439 17.50179533 -31.5625 21.8125 C-32.37916112 25.14917262 -32.37916112 25.14917262 -30 28 C-25.80374091 26.36221955 -23.01323215 23.26676818 -19.921875 20.1171875 C-19.06471893 19.25578659 -19.06471893 19.25578659 -18.19024658 18.37698364 C-16.37207055 16.5476419 -14.56098508 14.71145807 -12.75 12.875 C-11.51608671 11.63105226 -10.28171678 10.3875573 -9.046875 9.14453125 C-6.02593257 6.10157633 -3.01132908 3.05246746 0 0 Z " fill="#383133" transform="translate(160,270)"/>
<path d="M0 0 C0.78515625 3.1640625 0.78515625 3.1640625 1 7 C-0.87890625 9.8359375 -0.87890625 9.8359375 -3.5625 12.375 C-4.43003906 13.22835937 -5.29757812 14.08171875 -6.19140625 14.9609375 C-9.2498529 17.18139529 -11.27278132 17.70444962 -15 18 C-15.33 16.68 -15.66 15.36 -16 14 C-13.525 14.495 -13.525 14.495 -11 15 C-10.67 14.34 -10.34 13.68 -10 13 C-9.34 13 -8.68 13 -8 13 C-8.103125 11.783125 -8.20625 10.56625 -8.3125 9.3125 C-8.32547288 5.66063484 -8.07028951 5.09118639 -5.6875 2 C-3 0 -3 0 0 0 Z " fill="#555354" transform="translate(392,223)"/>
<path d="M0 0 C3.61872485 0.67851091 5.3473474 2.06588578 8 4.5625 C7.67 5.5525 7.34 6.5425 7 7.5625 C5.35 7.8925 3.7 8.2225 2 8.5625 C1.67 6.9125 1.34 5.2625 1 3.5625 C-0.32 3.8925 -1.64 4.2225 -3 4.5625 C-3.25030977 6.97869823 -3.25030977 6.97869823 -3 9.5625 C-2.01 10.2225 -1.02 10.8825 0 11.5625 C-0.33 12.8825 -0.66 14.2025 -1 15.5625 C-3.27029534 15.17106977 -4.83408198 14.67508722 -6.75 13.375 C-8.66289487 10.60130244 -8.52668369 8.85427306 -8 5.5625 C-5.53959272 2.23371368 -4.10389613 0.76948052 0 0 Z " fill="#232223" transform="translate(195,228.4375)"/>
<path d="M0 0 C0.33 0 0.66 0 1 0 C1 3.63 1 7.26 1 11 C0.01 11 -0.98 11 -2 11 C-4.49313448 13.07469843 -4.49313448 13.07469843 -7.10546875 15.8125 C-7.5895369 16.30081299 -8.07360504 16.78912598 -8.57234192 17.29223633 C-10.1179014 18.85459826 -11.65271107 20.42706327 -13.1875 22 C-14.23303282 23.06057762 -15.27924873 24.12048229 -16.32617188 25.1796875 C-18.89348417 27.7775388 -21.44600669 30.38878028 -24 33 C-19.05 33 -14.1 33 -9 33 C-9 33.33 -9 33.66 -9 34 C-11.62416952 34.36164523 -14.24900313 34.71461153 -16.875 35.0625 C-17.62136719 35.16626953 -18.36773437 35.27003906 -19.13671875 35.37695312 C-24.7734375 36.11328125 -24.7734375 36.11328125 -27 35 C-25.72318657 31.8660034 -23.97961473 29.86513286 -21.546875 27.546875 C-19.63600583 25.63600583 -17.89373095 23.60545281 -16.125 21.5625 C-11.9978889 16.87472475 -7.45022221 12.99886549 -2.625 9.0625 C-0.36345399 6.19207622 -0.27528443 3.57869764 0 0 Z " fill="#4C494A" transform="translate(498,260)"/>
<path d="M0 0 C2.1875 0.4375 2.1875 0.4375 4 1 C4.7425 1.185625 5.485 1.37125 6.25 1.5625 C6.8275 1.706875 7.405 1.85125 8 2 C5.66042487 3.45621152 4.50645695 4.08397214 1.73828125 3.625 C0.93777344 3.41875 0.13726562 3.2125 -0.6875 3 C-3.33047987 2.50519546 -3.33047987 2.50519546 -6 3 C-8.8287806 5.35803042 -10.9427676 7.86320008 -13.1875 10.77734375 C-13.785625 11.51082031 -14.38375 12.24429688 -15 13 C-15.66 13 -16.32 13 -17 13 C-17 13.66 -17 14.32 -17 15 C-17.66 15 -18.32 15 -19 15 C-19.33 15.99 -19.66 16.98 -20 18 C-20.99 18 -21.98 18 -23 18 C-20.91646814 13.42061629 -17.79404959 10.31487492 -14.3125 6.75 C-13.71244141 6.1003125 -13.11238281 5.450625 -12.49414062 4.78125 C-8.42126404 0.61650402 -6.08399703 -0.85953275 0 0 Z " fill="#4F4D4E" transform="translate(385,193)"/>
<path d="M0 0 C0 0.66 0 1.32 0 2 C0.99 2.33 1.98 2.66 3 3 C0.94766315 5.2477975 -0.00667261 6.0022242 -3 7 C-3.33 7.66 -3.66 8.32 -4 9 C-5.65 8.67 -7.3 8.34 -9 8 C-9 7.01 -9 6.02 -9 5 C-9.99 5.66 -10.98 6.32 -12 7 C-12.66 6.34 -13.32 5.68 -14 5 C-12.61765122 3.96097967 -11.21844209 2.94436554 -9.8125 1.9375 C-9.03519531 1.36902344 -8.25789063 0.80054687 -7.45703125 0.21484375 C-4.48016155 -1.25702664 -3.112514 -0.96747771 0 0 Z " fill="#D2D1D3" transform="translate(427,77)"/>
<path d="M0 0 C2.93745916 1.32634942 5.02143479 2.7693366 7.29980469 5.04101562 C8.23031647 5.96207092 8.23031647 5.96207092 9.17962646 6.9017334 C9.83706848 7.56322388 10.4945105 8.22471436 11.171875 8.90625 C11.8542926 9.58675415 12.53671021 10.2672583 13.23980713 10.96838379 C14.67779427 12.40501197 16.11326692 13.84416085 17.54638672 15.28564453 C19.74877028 17.49876429 21.96164933 19.70098472 24.17578125 21.90234375 C25.57095454 23.29883803 26.96550762 24.69595227 28.359375 26.09375 C29.02491394 26.75524048 29.69045288 27.41673096 30.37615967 28.0982666 C30.98389221 28.71230347 31.59162476 29.32634033 32.21777344 29.95898438 C32.75642029 30.49922241 33.29506714 31.03946045 33.85003662 31.59606934 C35 33 35 33 35 35 C34.34 35 33.68 35 33 35 C31.66796875 33.64453125 31.66796875 33.64453125 30.1875 31.8125 C26.81478724 27.75214677 23.36695393 24.06318639 19.1875 20.8125 C18.465625 20.214375 17.74375 19.61625 17 19 C17 18.34 17 17.68 17 17 C16.34 17 15.68 17 15 17 C15 16.34 15 15.68 15 15 C14.34 15 13.68 15 13 15 C10.875 13.125 10.875 13.125 9 11 C9 10.34 9 9.68 9 9 C8.34 9 7.68 9 7 9 C7 8.34 7 7.68 7 7 C6.34 7 5.68 7 5 7 C0 1.4047619 0 1.4047619 0 0 Z " fill="#363032" transform="translate(141,311)"/>
<path d="M0 0 C5.01656959 1.4333056 7.01452882 3.90563952 10 8 C10 8.66 10 9.32 10 10 C8.68 9.67 7.36 9.34 6 9 C6 9.66 6 10.32 6 11 C2.17902761 10.46930939 -0.06171403 9.50298434 -3 7 C-2.01 4.69 -1.02 2.38 0 0 Z " fill="#252324" transform="translate(199,220)"/>
<path d="M0 0 C2 3 2 3 1.8125 5.3125 C2.1026747 9.47167065 4.08100451 11.08100451 7 14 C7.99 14 8.98 14 10 14 C10 20.27 10 26.54 10 33 C9.67 33 9.34 33 9 33 C9 28.05 9 23.1 9 18 C7.68 17.34 6.36 16.68 5 16 C4.175 15.13375 3.35 14.2675 2.5 13.375 C0.09138014 10.54083369 0.09138014 10.54083369 -4 11 C-3.52269162 9.5410574 -3.04308958 8.08286504 -2.5625 6.625 C-2.29566406 5.81289063 -2.02882812 5.00078125 -1.75390625 4.1640625 C-1 2 -1 2 0 0 Z " fill="#5C5859" transform="translate(201,54)"/>
<path d="M0 0 C0.33 0.66 0.66 1.32 1 2 C1.66 2 2.32 2 3 2 C3 2.66 3 3.32 3 4 C3.66 4 4.32 4 5 4 C5 4.66 5 5.32 5 6 C5.99 6.33 6.98 6.66 8 7 C6.875 8.5 6.875 8.5 5 10 C1.9375 10.375 1.9375 10.375 -1 10 C-3 7 -3 7 -2.625 4.3125 C-2.41875 3.549375 -2.2125 2.78625 -2 2 C-1.34 2 -0.68 2 0 2 C0 1.34 0 0.68 0 0 Z " fill="#1F1E1E" transform="translate(398,201)"/>
<path d="M0 0 C1.32 0 2.64 0 4 0 C4.33 1.65 4.66 3.3 5 5 C6.32 5.33 7.64 5.66 9 6 C7.35 7.65 5.7 9.3 4 11 C3.67 9.68 3.34 8.36 3 7 C1.68 6.67 0.36 6.34 -1 6 C-1.042721 4.33388095 -1.04063832 2.66617115 -1 1 C-0.67 0.67 -0.34 0.34 0 0 Z " fill="#4C4B4C" transform="translate(192,232)"/>
<path d="M0 0 C2.97 1.65 5.94 3.3 9 5 C8.67 6.65 8.34 8.3 8 10 C5.0212021 9.66902246 2.64069234 9.3926824 0.0625 7.8125 C-1.551632 5.05898071 -0.73199739 2.99453478 0 0 Z " fill="#DFDCDD" transform="translate(390,87)"/>
<path d="M0 0 C0.66 0.66 1.32 1.32 2 2 C1.36191406 2.61488281 0.72382813 3.22976563 0.06640625 3.86328125 C-0.75988281 4.67152344 -1.58617187 5.47976563 -2.4375 6.3125 C-3.26121094 7.11300781 -4.08492187 7.91351563 -4.93359375 8.73828125 C-7.19403477 10.90470808 -7.19403477 10.90470808 -8 14 C-6.68 14.33 -5.36 14.66 -4 15 C-9.28 14.67 -14.56 14.34 -20 14 C-20 13.67 -20 13.34 -20 13 C-16.7 13 -13.4 13 -10 13 C-10 11.68 -10 10.36 -10 9 C-8.3203125 7.1484375 -8.3203125 7.1484375 -6.125 5.375 C-5.40570313 4.78460938 -4.68640625 4.19421875 -3.9453125 3.5859375 C-3.30335938 3.06257813 -2.66140625 2.53921875 -2 2 C-1.34 1.34 -0.68 0.68 0 0 Z " fill="#504E4F" transform="translate(204,367)"/>
<path d="M0 0 C0.33 0 0.66 0 1 0 C1.33 5.28 1.66 10.56 2 16 C1.67 16 1.34 16 1 16 C1 14.02 1 12.04 1 10 C0.67 10.66 0.34 11.32 0 12 C-1.32 11.67 -2.64 11.34 -4 11 C-4 11.66 -4 12.32 -4 13 C-4.66 13 -5.32 13 -6 13 C-6.33 13.99 -6.66 14.98 -7 16 C-7.99 16.33 -8.98 16.66 -10 17 C-9.44225728 13.76509224 -8.62788492 12.02144994 -6 10 C-5.01 10 -4.02 10 -3 10 C-2.87625 9.46375 -2.7525 8.9275 -2.625 8.375 C-1.87793984 5.5361714 -0.94696636 2.77776798 0 0 Z " fill="#504E4E" transform="translate(213,202)"/>
<path d="M0 0 C0.33 0 0.66 0 1 0 C1.67568147 4.27931599 2.07350561 7.50179533 1.4375 11.8125 C0.62083888 15.14917262 0.62083888 15.14917262 3 18 C4.32 17.67 5.64 17.34 7 17 C6.835 17.598125 6.67 18.19625 6.5 18.8125 C5.8885876 21.11344336 5.8885876 21.11344336 6 24 C3.66666667 24 1.33333333 24 -1 24 C-0.01 22.68 0.98 21.36 2 20 C0.68 19.34 -0.64 18.68 -2 18 C-1.33333333 12 -0.66666667 6 0 0 Z " fill="#565254" transform="translate(127,280)"/>
<path d="M0 0 C0.33 0 0.66 0 1 0 C1.02716089 3.02089478 1.04691657 6.04154129 1.0625 9.0625 C1.07087891 9.91005859 1.07925781 10.75761719 1.08789062 11.63085938 C1.10683006 16.5361722 0.83326345 21.16444755 0 26 C-0.33 26 -0.66 26 -1 26 C-2.05619003 21.71702469 -2.11702092 17.57014354 -2.0625 13.1875 C-2.05798828 12.49462891 -2.05347656 11.80175781 -2.04882812 11.08789062 C-2.03713156 9.39188932 -2.01919924 7.69593297 -2 6 C-1.34 6 -0.68 6 0 6 C0 4.02 0 2.04 0 0 Z " fill="#4F494B" transform="translate(333,220)"/>
<path d="M0 0 C2.05078125 0.03255208 4.1015625 0.06510417 6.15234375 0.09765625 C6.48234375 0.75765625 6.81234375 1.41765625 7.15234375 2.09765625 C4.65728413 4.59271587 3.47905487 4.45714001 0.02734375 4.72265625 C-0.88273438 4.79742187 -1.7928125 4.8721875 -2.73046875 4.94921875 C-3.77847656 5.02269531 -3.77847656 5.02269531 -4.84765625 5.09765625 C-2.44354091 0.12915121 -2.44354091 0.12915121 0 0 Z " fill="#504E4F" transform="translate(211.84765625,372.90234375)"/>
<path d="M0 0 C0.33 0 0.66 0 1 0 C1.04125 1.216875 1.0825 2.43375 1.125 3.6875 C1.57902076 7.42494625 1.89561181 7.90025129 4.8125 10.6875 C6.3903125 11.8321875 6.3903125 11.8321875 8 13 C9.37705764 14.63072616 10.72722111 16.2866438 12 18 C11.67 18.66 11.34 19.32 11 20 C9.2925002 18.71937515 7.62626404 17.38232443 6 16 C6 15.34 6 14.68 6 14 C5.34 14 4.68 14 4 14 C4 13.34 4 12.68 4 12 C3.34 12 2.68 12 2 12 C2 11.34 2 10.68 2 10 C1.34 10 0.68 10 0 10 C-0.33 10.99 -0.66 11.98 -1 13 C-0.67 8.71 -0.34 4.42 0 0 Z " fill="#363032" transform="translate(311,139)"/>
<path d="M0 0 C3.5432211 1.5024543 5.77071524 3.56252265 8.4375 6.3125 C9.21996094 7.11429688 10.00242187 7.91609375 10.80859375 8.7421875 C11.53175781 9.48726562 12.25492187 10.23234375 13 11 C13.99782139 11.98138669 14.99729425 12.96110431 16 13.9375 C18 16 18 16 19 18 C10.76392639 14.33952284 5.22426239 7.09233198 0 0 Z " fill="#363032" transform="translate(323,159)"/>
<path d="M0 0 C4.75991185 2.4520758 8.57829431 5.90775833 12 10 C12 10.66 12 11.32 12 12 C10.68 11.67 9.36 11.34 8 11 C8 10.34 8 9.68 8 9 C7.34 9 6.68 9 6 9 C4.71569138 7.52304509 3.43419292 6.04193862 2.21875 4.5078125 C0.93215329 2.86186905 0.93215329 2.86186905 -1 1 C-0.67 0.67 -0.34 0.34 0 0 Z " fill="#414141" transform="translate(393,194)"/>
<path d="M0 0 C0.5625 1.9375 0.5625 1.9375 1 4 C0.67 4.33 0.34 4.66 0 5 C0.66 5.66 1.32 6.32 2 7 C1.01 8.485 1.01 8.485 0 10 C0.66 10.33 1.32 10.66 2 11 C0.68 10.67 -0.64 10.34 -2 10 C-2.66 11.65 -3.32 13.3 -4 15 C-4.66 15 -5.32 15 -6 15 C-4.36041242 9.76727367 -2.61047965 4.84803364 0 0 Z " fill="#5F5A5E" transform="translate(196,65)"/>
<path d="M0 0 C0.33 0.66 0.66 1.32 1 2 C1.66 2 2.32 2 3 2 C3 2.66 3 3.32 3 4 C3.66 4 4.32 4 5 4 C5 4.66 5 5.32 5 6 C7.31 6 9.62 6 12 6 C12 6.33 12 6.66 12 7 C4.08 7.495 4.08 7.495 -4 8 C-4 7.67 -4 7.34 -4 7 C-2.02 6.67 -0.04 6.34 2 6 C0.68 4.35 -0.64 2.7 -2 1 C-1.34 0.67 -0.68 0.34 0 0 Z " fill="#6E6B6B" transform="translate(234,369)"/>
<path d="M0 0 C0.33 0 0.66 0 1 0 C1 2.31 1 4.62 1 7 C1.66 7.33 2.32 7.66 3 8 C-0.78756477 11.61139896 -0.78756477 11.61139896 -3 13 C-5.875 12.8125 -5.875 12.8125 -8 12 C-7.67 11.01 -7.34 10.02 -7 9 C-5.02 9.495 -5.02 9.495 -3 10 C-2.67 9.34 -2.34 8.68 -2 8 C-1.34 8 -0.68 8 0 8 C0 5.36 0 2.72 0 0 Z " fill="#4F4D4E" transform="translate(384,228)"/>
<path d="M0 0 C1.03159626 3.09478879 0.97482862 4.52631393 0.5625 7.6875 C0.46066406 8.49574219 0.35882813 9.30398437 0.25390625 10.13671875 C0.17011719 10.75160156 0.08632813 11.36648437 0 12 C-0.66 12 -1.32 12 -2 12 C-4.05685131 7.64431487 -4.05685131 7.64431487 -3.8125 4.875 C-2.88269161 2.72928833 -1.75385898 1.52509476 0 0 Z " fill="#D4D5D4" transform="translate(400,168)"/>
<path d="M0 0 C5.01656959 1.4333056 7.01452882 3.90563952 10 8 C10 8.66 10 9.32 10 10 C6.6092481 8.54682061 4.58699688 6.58699688 2 4 C1.01 3.67 0.02 3.34 -1 3 C-0.67 2.01 -0.34 1.02 0 0 Z " fill="#515050" transform="translate(199,220)"/>
<path d="M0 0 C0.33 0 0.66 0 1 0 C1 2.97 1 5.94 1 9 C1.66 9.33 2.32 9.66 3 10 C1.5625 12.0625 1.5625 12.0625 -1 14 C-4.07583023 14.05823431 -6.98735648 13.59222907 -10 13 C-10 12.67 -10 12.34 -10 12 C-8.88625 11.896875 -7.7725 11.79375 -6.625 11.6875 C-5.42875 11.460625 -4.2325 11.23375 -3 11 C-1.06604999 8.09907498 -0.69868059 7.10325263 -0.375 3.8125 C-0.25125 2.554375 -0.1275 1.29625 0 0 Z " fill="#2E2C2D" transform="translate(390,210)"/>
<path d="M0 0 C1.32 1.65 2.64 3.3 4 5 C3.67 5.66 3.34 6.32 3 7 C2.01 7.33 1.02 7.66 0 8 C-0.33 8.66 -0.66 9.32 -1 10 C-1.66 10 -2.32 10 -3 10 C-3.66 11.32 -4.32 12.64 -5 14 C-5.66 13.34 -6.32 12.68 -7 12 C-5.625 10.5 -5.625 10.5 -4 9 C-3.34 9 -2.68 9 -2 9 C-1.690625 8.38125 -1.38125 7.7625 -1.0625 7.125 C-0.375 5.75 0.3125 4.375 1 3 C0.34 3 -0.32 3 -1 3 C-0.67 2.01 -0.34 1.02 0 0 Z " fill="#514C4E" transform="translate(165,87)"/>
<path d="M0 0 C0.33 0 0.66 0 1 0 C1.33 3.63 1.66 7.26 2 11 C1.01 11.495 1.01 11.495 0 12 C-0.65772428 15.02934491 -0.65772428 15.02934491 -1 18 C-1.33 18 -1.66 18 -2 18 C-2.23268915 11.71739294 -1.40454548 6.11980533 0 0 Z " fill="#6A6568" transform="translate(349,218)"/>
<path d="M0 0 C0.33 0 0.66 0 1 0 C1.33 1.65 1.66 3.3 2 5 C3.32 4.67 4.64 4.34 6 4 C4.63016497 7.16115776 4.0109362 7.9927092 1 10 C0.34 11.32 -0.32 12.64 -1 14 C-0.67 9.38 -0.34 4.76 0 0 Z " fill="#5D585B" transform="translate(315,106)"/>
<path d="M0 0 C2.73811563 4.10717344 4.25995769 7.96366479 3.625 12.9375 C3.41875 13.618125 3.2125 14.29875 3 15 C2.01 14.67 1.02 14.34 0 14 C0.185625 13.195625 0.37125 12.39125 0.5625 11.5625 C0.706875 10.716875 0.85125 9.87125 1 9 C0.67 8.67 0.34 8.34 0 8 C-0.14115161 5.32941149 -0.04247107 2.67567762 0 0 Z " fill="#736F70" transform="translate(461,289)"/>
<path d="M0 0 C0.66 0 1.32 0 2 0 C2.33 3.3 2.66 6.6 3 10 C1.68 10.33 0.36 10.66 -1 11 C-1.0270043 9.54176788 -1.04639787 8.08339325 -1.0625 6.625 C-1.07410156 5.81289062 -1.08570313 5.00078125 -1.09765625 4.1640625 C-1 2 -1 2 0 0 Z " fill="#262022" transform="translate(212,212)"/>
<path d="M0 0 C4 0 4 0 5.5 1.375 C5.995 1.91125 6.49 2.4475 7 3 C9.09989652 4.17574711 9.09989652 4.17574711 11 5 C7.95904675 5.97744926 6.00367313 6.16271218 3 5 C1.25 3.5625 1.25 3.5625 0 2 C0 1.34 0 0.68 0 0 Z " fill="#444142" transform="translate(371,233)"/>
<path d="M0 0 C0.763125 0.20625 1.52625 0.4125 2.3125 0.625 C2.3125 1.285 2.3125 1.945 2.3125 2.625 C3.3025 2.955 4.2925 3.285 5.3125 3.625 C2.0932732 4.6980756 1.41043558 4.42446725 -1.6875 3.625 C-2.6775 4.12 -2.6775 4.12 -3.6875 4.625 C-3.6875 3.965 -3.6875 3.305 -3.6875 2.625 C-4.3475 2.295 -5.0075 1.965 -5.6875 1.625 C-2.6875 -0.375 -2.6875 -0.375 0 0 Z " fill="#DDD8DB" transform="translate(424.6875,76.375)"/>
<path d="M0 0 C3.3 0 6.6 0 10 0 C10.33 1.32 10.66 2.64 11 4 C8.37886292 4 6.49064888 3.68707555 4 3 C4 2.34 4 1.68 4 1 C2.68 1.33 1.36 1.66 0 2 C0 1.34 0 0.68 0 0 Z " fill="#8E8B8D" transform="translate(203,49)"/>
<path d="M0 0 C0.66 0 1.32 0 2 0 C2 1.65 2 3.3 2 5 C3.32 5.33 4.64 5.66 6 6 C0.72 5.67 -4.56 5.34 -10 5 C-10 4.67 -10 4.34 -10 4 C-6.7 4 -3.4 4 0 4 C0 2.68 0 1.36 0 0 Z " fill="#817E7F" transform="translate(194,376)"/>
<path d="M0 0 C0.33 0 0.66 0 1 0 C1.08071788 2.79224073 1.14035408 5.58216566 1.1875 8.375 C1.21263672 9.1690625 1.23777344 9.963125 1.26367188 10.78125 C1.29004405 12.85586148 1.15486462 14.93100865 1 17 C0.01 17.66 -0.98 18.32 -2 19 C-1.85820962 16.77057252 -1.71140302 14.54146372 -1.5625 12.3125 C-1.48128906 11.07113281 -1.40007812 9.82976562 -1.31640625 8.55078125 C-1.05508683 5.61819663 -0.65201621 2.86558383 0 0 Z " fill="#807B7C" transform="translate(131,255)"/>
<path d="M0 0 C2.43929746 1.92576115 4.80090595 3.80090595 7 6 C0.25 7.125 0.25 7.125 -2 6 C-1.34 4.02 -0.68 2.04 0 0 Z " fill="#494446" transform="translate(170,96)"/>
<path d="M0 0 C2.62386487 3.06117568 3 3.73173127 3 8 C2.01 8.495 2.01 8.495 1 9 C0.34 9.99 -0.32 10.98 -1 12 C-1.08159574 7.83861737 -0.98248524 4.0527516 0 0 Z " fill="#685E64" transform="translate(139,196)"/>
<path d="M0 0 C0.33 0 0.66 0 1 0 C2.26305335 5.07476794 3.27036084 9.72796354 3 15 C2.566875 14.1028125 2.566875 14.1028125 2.125 13.1875 C0.95257974 10.80672208 0.95257974 10.80672208 -1 8 C-0.96856707 5.26009592 -0.44521663 2.71582146 0 0 Z " fill="#5E5D5D" transform="translate(451,242)"/>
<path d="M0 0 C0.33 0 0.66 0 1 0 C1.33 4.29 1.66 8.58 2 13 C1.67 12.01 1.34 11.02 1 10 C0.34 10 -0.32 10 -1 10 C-0.67 6.7 -0.34 3.4 0 0 Z " fill="#706C6C" transform="translate(211,188)"/>
<path d="M0 0 C0.33 0 0.66 0 1 0 C1.36504603 1.58086048 1.71660506 3.16483907 2.0625 4.75 C2.25972656 5.63171875 2.45695313 6.5134375 2.66015625 7.421875 C2.99825872 9.98679028 2.81158635 11.57091639 2 14 C-0.28062828 10.57905758 -0.21925007 9.31812778 -0.125 5.3125 C-0.10695312 4.31863281 -0.08890625 3.32476562 -0.0703125 2.30078125 C-0.04710937 1.54152344 -0.02390625 0.78226562 0 0 Z " fill="#706B6D" transform="translate(232,321)"/>
<path d="M0 0 C0.33 0.66 0.66 1.32 1 2 C3.01669827 3.13350534 3.01669827 3.13350534 5 4 C5 4.99 5 5.98 5 7 C4.01 6.34 3.02 5.68 2 5 C1.67 6.98 1.34 8.96 1 11 C0.67 11 0.34 11 0 11 C0 7.37 0 3.74 0 0 Z " fill="#656163" transform="translate(146,145)"/>
<path d="M0 0 C0.99 0 1.98 0 3 0 C3 4.62 3 9.24 3 14 C2.67 14 2.34 14 2 14 C1.93941406 13.39671875 1.87882813 12.7934375 1.81640625 12.171875 C1.69072266 10.97304687 1.69072266 10.97304687 1.5625 9.75 C1.48128906 8.96109375 1.40007812 8.1721875 1.31640625 7.359375 C1.02359566 5.17594789 0.56010949 3.12747468 0 1 C0 0.67 0 0.34 0 0 Z " fill="#4C494C" transform="translate(209,54)"/>
<path d="M0 0 C1 4 1 4 0 6 C0.66 6.33 1.32 6.66 2 7 C0.625 8.5 0.625 8.5 -1 10 C-1.66 10 -2.32 10 -3 10 C-2.01 6.7 -1.02 3.4 0 0 Z " fill="#615D5E" transform="translate(112,352)"/>
<path d="M0 0 C0.33 0 0.66 0 1 0 C1.33 3.63 1.66 7.26 2 11 C0.68 11 -0.64 11 -2 11 C-2 10.01 -2 9.02 -2 8 C-1.34 8 -0.68 8 0 8 C0 5.36 0 2.72 0 0 Z " fill="#686464" transform="translate(221,260)"/>
<path d="M0 0 C0.33 0 0.66 0 1 0 C1 1.98 1 3.96 1 6 C0.34 6 -0.32 6 -1 6 C-1.66 7.32 -2.32 8.64 -3 10 C-3.66 9.34 -4.32 8.68 -5 8 C-4.34 8 -3.68 8 -3 8 C-3.33 7.01 -3.66 6.02 -4 5 C-2.68 4.67 -1.36 4.34 0 4 C0 2.68 0 1.36 0 0 Z " fill="#666264" transform="translate(215,218)"/>
<path d="M0 0 C0.33 0 0.66 0 1 0 C1 3.3 1 6.6 1 10 C0.34 10 -0.32 10 -1 10 C-2.23076923 4.58461538 -2.23076923 4.58461538 -1.0625 1.625 C-0.5365625 0.820625 -0.5365625 0.820625 0 0 Z " fill="#23191C" transform="translate(335,205)"/>
<path d="M0 0 C0.66 0.33 1.32 0.66 2 1 C1.67 1.66 1.34 2.32 1 3 C0.34 3 -0.32 3 -1 3 C-1.2475 3.639375 -1.495 4.27875 -1.75 4.9375 C-3 7 -3 7 -5.125 7.75 C-6.053125 7.87375 -6.053125 7.87375 -7 8 C-5.625 6 -5.625 6 -4 4 C-3.34 4 -2.68 4 -2 4 C-1.34 2.68 -0.68 1.36 0 0 Z " fill="#171717" transform="translate(426,168)"/>
<path d="M0 0 C0.33 0 0.66 0 1 0 C1.144375 1.2375 1.28875 2.475 1.4375 3.75 C1.78688502 6.56504499 2.20379366 9.2701497 3 12 C2.67 11.34 2.34 10.68 2 10 C1.34 10 0.68 10 0 10 C-0.33 10.99 -0.66 11.98 -1 13 C-0.67 8.71 -0.34 4.42 0 0 Z " fill="#847D7F" transform="translate(311,139)"/>
<path d="M0 0 C0.99 0 1.98 0 3 0 C2.01 3.3 1.02 6.6 0 10 C-2 6 -2 6 -1.125 2.75 C-0.75375 1.8425 -0.3825 0.935 0 0 Z " fill="#BCBCBC" transform="translate(401,168)"/>
<path d="M0 0 C1.65 0.99 3.3 1.98 5 3 C4.01 3.99 3.02 4.98 2 6 C1.01 5.67 0.02 5.34 -1 5 C-0.67 3.35 -0.34 1.7 0 0 Z " fill="#F0EDEE" transform="translate(390,87)"/>
<path d="M0 0 C0.66 0.33 1.32 0.66 2 1 C0.02 2.98 -1.96 4.96 -4 7 C-4.99 6.67 -5.98 6.34 -7 6 C-4.69 4.02 -2.38 2.04 0 0 Z " fill="#171717" transform="translate(491,273)"/>
<path d="M0 0 C1.17571451 3.67410785 1.07366746 7.16929183 1 11 C0.01 11 -0.98 11 -2 11 C-1.125 3.375 -1.125 3.375 0 0 Z " fill="#7B777B" transform="translate(346,236)"/>
<path d="M0 0 C0.33 0 0.66 0 1 0 C1 2.97 1 5.94 1 9 C-0.32 9 -1.64 9 -3 9 C-2.01 6.03 -1.02 3.06 0 0 Z " fill="#746F70" transform="translate(213,202)"/>
<path d="M0 0 C-0.33 0.99 -0.66 1.98 -1 3 C-3.97 3 -6.94 3 -10 3 C-6.26223701 0.50815801 -4.5227786 0 0 0 Z " fill="#7B7678" transform="translate(330,96)"/>
<path d="M0 0 C1.2065625 0.0309375 1.2065625 0.0309375 2.4375 0.0625 C2.1075 1.3825 1.7775 2.7025 1.4375 4.0625 C0.1175 4.0625 -1.2025 4.0625 -2.5625 4.0625 C-2.8925 3.0725 -3.2225 2.0825 -3.5625 1.0625 C-2.5625 0.0625 -2.5625 0.0625 0 0 Z " fill="#EDEAEB" transform="translate(396.5625,92.9375)"/>
<path d="M0 0 C1.9375 0.3125 1.9375 0.3125 4 1 C4.33 1.99 4.66 2.98 5 4 C2.69 3.67 0.38 3.34 -2 3 C-1.34 2.01 -0.68 1.02 0 0 Z " fill="#1D181A" transform="translate(198,378)"/>
<path d="M0 0 C0.82810826 3.31243305 1.09278428 5.65976579 1 9 C0.01 9.33 -0.98 9.66 -2 10 C-1.34 6.7 -0.68 3.4 0 0 Z " fill="#645E60" transform="translate(119,326)"/>
<path d="M0 0 C0.66 0.33 1.32 0.66 2 1 C0.875 3.5 0.875 3.5 -1 6 C-4.1875 6.3125 -4.1875 6.3125 -7 6 C-6.401875 5.7525 -5.80375 5.505 -5.1875 5.25 C-2.71352479 3.83629988 -1.56629745 2.34944617 0 0 Z " fill="#4E484A" transform="translate(306,287)"/>
<path d="M0 0 C1.37432457 3.81756824 0.67975039 7.07255329 0 11 C-0.33 11 -0.66 11 -1 11 C-1 8.69 -1 6.38 -1 4 C-1.66 3.67 -2.32 3.34 -3 3 C-2.01 2.01 -1.02 1.02 0 0 Z " fill="#838181" transform="translate(329,265)"/>
<path d="M0 0 C0.99 0.33 1.98 0.66 3 1 C1.35 2.65 -0.3 4.3 -2 6 C-2.33 5.01 -2.66 4.02 -3 3 C-2.01 2.01 -1.02 1.02 0 0 Z " fill="#545253" transform="translate(198,237)"/>
<path d="M0 0 C0.66 0 1.32 0 2 0 C2.33 2.31 2.66 4.62 3 7 C2.01 7.33 1.02 7.66 0 8 C0 5.36 0 2.72 0 0 Z " fill="#403C3D" transform="translate(140,189)"/>
<path d="M0 0 C0.66 0 1.32 0 2 0 C2 0.66 2 1.32 2 2 C2.66 2 3.32 2 4 2 C4 2.66 4 3.32 4 4 C3.01 4.495 3.01 4.495 2 5 C1.34 5.99 0.68 6.98 0 8 C0 5.36 0 2.72 0 0 Z " fill="#21181B" transform="translate(311,149)"/>
</svg>
