<?xml version="1.0" encoding="utf-8"?>
<!-- Designed by Vexels.com - 2019 All Rights Reserved - https://vexels.com/terms-and-conditions/  -->
<svg version="1.1" id="Layer_1" xmlns="http://www.w3.org/2000/svg" xmlns:xlink="http://www.w3.org/1999/xlink" x="0px" y="0px"
	 viewBox="0 0 1200 1200" enable-background="new 0 0 1200 1200" xml:space="preserve">
<g>
	<g>
		<path fill="#262324" d="M935.456,599.069c0,0-4.898-12.251-8.575-23.893c-3.676-11.641-3.066-23.282-6.119-31.232
			c-3.066-7.979-2.463-13.487-5.537-22.062c-3.052-8.575-8.561-44.116-12.855-64.332c-4.288-20.216-9.796-31.24-18.378-49.008
			c-8.568-17.774-6.729-17.76-9.803-33.085c-3.059-15.312-6.119-45.337-6.119-57.589c0-12.252-1.838-39.211-6.126-48.397
			c-4.302-9.186-8.575-20.827-14.7-23.276c-6.119-2.449-31.254-8.575-31.254-8.575s-21.437-115.171-64.325-134.166
			c0,0-9.069-8.165-22.086-12.407c-15.223-4.962-35.847-4.558-53.682,20.543c0,0-16.739,12.081-14.907,35.363
			c0,0,8.589,55.737,0.617,77.188c0,0-0.61,7.354-12.251,3.066c-11.642-4.295-1.832,0.61-1.832,0.61s-2.456,6.744,9.185,6.744
			c0,0,1.221,12.251-11.031,13.473c0,0,2.335,1.384,5.821,1.888c-7.048,1.505-16.865,6.147-19.904,20.159
			c0,0,15.538-18.072,14.083-14.694c-1.825,4.287-9.802,15.318-7.354,28.79v14.708c0,0-3.059,20.216-3.677,35.534
			c-0.603,15.311,0,30.629-1.22,45.33c-1.221,14.7,1.22,17.774-7.964,41.043c-9.193,23.283-15.936,31.857-25.122,66.781
			c-9.178,34.917-5.501,29.408-15.921,46.558c-9.526,15.687-9.832,20.103-9.81,20.742c-0.128-1.845-2.435-36.982-2.435-48.305
			c0-11.641,9.796-11.03,7.34-19.605c-2.442-8.575-1.221-6.133-3.053-14.694c-1.845-8.589,0-11.031-1.235-22.076
			c-1.214-11.017-1.235-15.922-3.677-29.401c-2.449-13.473-4.905-9.81-6.751-18.995c-1.824-9.186-1.208-11.017-6.119-25.717
			c-4.891-14.708-33.078-109.67-41.654-122.532c-8.575-12.869-14.09-12.259-26.335-16.546c-12.266-4.281-38.608-3.06-65.553-31.24
			c0,0,8.575-3.67,5.508-11.641c0,0-1.838-20.827,12.245-32.468c0,0,9.802-8.582-1.228-27.563c0,0,0.015-9.81,4.912-10.421
			c0,0,0-18.995-6.126-23.893c0,0,20.216-6.126,11.024-17.15c0,0,2.456,10.413-3.663,6.126c0,0,4.884-4.295-7.361-13.48
			c-12.244-9.192-14.09-7.964-22.061-12.862c-7.958-4.905-37.359-15.318-49.625-11.642c-12.244,3.677-42.867,5.516-47.162,34.306
			c-4.287,28.798,1.214,42.271,7.951,57.589c6.751,15.318,7.972,14.707,10.428,18.995c2.441,4.287,5.515,7.339,4.89,12.862
			c-0.61,5.508-1.824,12.252-1.824,12.252s-5.522-1.228-7.979,5.515c-2.442,6.744-5.515,11.024-12.252,17.768
			c-6.735,6.729-10.413,11.634-25.113,18.988c-14.701,7.346-23.283,4.287-38.601,14.09c-15.304,9.81-27.548,16.539-29.394,20.827
			c-1.846,4.294,1.22,4.897-2.456,23.893c-3.663,18.995-0.611,21.437-3.663,34.924c-3.082,13.473-5.53,50.846-11.649,64.936
			c-6.125,14.09-7.971,14.09-12.252,22.672c-4.294,8.575,2.456,6.119-0.61,15.929c-3.059,9.796-3.059,16.539-1.838,21.43
			c1.214,4.905-0.625,7.361,0,16.546c0.61,9.185-6.744,12.876-3.067,20.841c3.677,7.964,3.677,3.053,2.442,14.083
			c-1.22,11.031-0.603,12.869,0,17.768c0.625,4.898,0,1.846,3.677,15.318c3.677,13.473,0,20.202,4.302,31.233
			c4.287,11.03,3.67,13.473,5.501,17.149c1.846,3.692,4.294,6.147,4.294,6.147l11.642,26.946l17.157,10.42l11.633,3.663l0.547-0.525
			c-0.539,9.81-0.617,17.916,0.064,22.587c0,0,26.342,18.385,50.242,9.186c0,0,7.958,20.23,8.575,31.247
			c0.618,11.031,2.449,10.407,4.898,15.319c2.449,4.912,3.073,7.964,2.449,15.929c-0.611,7.964,3.073,47.771,17.156,75.342
			c14.098,27.57,14.708,45.955,18.371,65.56c3.684,19.606,8.581,58.803,8.581,58.803c3.059,20.841,6.133,45.344,7.979,54.529
			c1.831,9.2-0.625,19.606,4.273,30.651c4.898,11.003,11.031,15.915,12.869,20.202c1.846,4.288,7.964,8.589,6.119,14.694
			c-1.832,6.147,0.61,27.57,1.235,30.04c0.61,2.442-23.282,40.418-15.936,48.397c0,0,0.625,6.73,7.361,8.575l20.217,1.846
			c0,0-1.228,9.157,4.897,13.458c0,0,31.247,15.332,48.404-1.832l3.052-9.185c0,0,21.444,1.832,20.834-15.332
			c-0.618-17.15,0-3.663,0-3.663s1.221-33.703-9.802-42.888c0,0,4.294-7.34,1.22-12.252c-3.059-4.897,0.618-10.406,0-19.605
			c-0.603-9.2,3.074-11.641-0.603-22.047c-3.677-10.407-9.795-7.354-6.751-20.216c3.074-12.877,3.684-22.062,8.589-43.499
			c4.89-21.451,8.568-26.349,9.192-38.6c0.61-12.252,3.059-33.689,1.838-43.485c-1.228-9.81-2.462-28.791-3.684-37.99
			c-1.228-9.2-1.846-20.841-1.846-33.093c0-12.238-1.214-6.744,2.456-17.15c3.684-10.42,7.354-18.385,5.516-30.026
			c-1.832-11.641-1.832-16.539-1.221-23.878c0.603-7.368,4.898-4.912,4.898-12.266c0-7.34,1.845-9.171,1.845-15.929
			c0-6.729,2.442-4.884,4.891-11.641c2.456-6.73,3.677-16.54,1.846-22.658c-1.846-6.133,1.832-8.575,2.449-11.641
			c0.61-3.053,1.846-10.42,1.846-10.42l26.952-5.508l-0.617-6.119c0,0,0.049-2.641,0.121-7.085
			c4.401,2.897,11.307,6.303,17.043,4.018c0,0-3.074,6.743,2.442,7.354c0,0,12.863-3.067,14.708-1.235
			c-0.703-0.696-1.846-1.832-1.846-1.832s16.546,12.252,12.862-5.522c0,0,20.834,4.302,7.354-12.238c0,0,12.259-6.133,4.28-11.031
			c0,0,13.487-6.743,4.302-13.487c0,0-10.181-5.494-5.802-12.793c5.452-9.086,35.628-60.935,46.035-82.379
			c10.412-21.435,15.143-42.401,19.989-64.207c15.071-67.817,24.691-61.896,21.201-101.762c-1.005-11.494,9.908,1.523,18.819,17.528
			c0.707-6.688,5.342-13.024,13.968-13.29c40.056-1.236,70.782,18.581,106.463,33.407c1.734,0.72,3.065,1.658,4.186,2.689
			c4.527-18.416,9.428-35.073,11.21-32.104c0,0,6.526,46.275,8.306,52.8c1.78,6.526,5.339,11.272,7.12,16.02
			c7.597,20.265,7.412,38.464,13.051,59.325c4.913,18.175,14.148,37.728,22.544,54.58c4.084,8.198,6.643,18.506,10.451,26.844
			c2.025,4.435,7.183,12.424,6.319,17.603c0,0-4.933,15.375-2.882,29.486c0.135,0.795,0.27,1.604,0.441,2.399
			c3.059,14.68,3.663,7.34,3.059,15.305c-0.05,0.454-0.078,0.823-0.1,1.178c-0.113,2.768-0.171,8.163,0.703,11.683
			c0,0-11.634,8.575-7.347,12.863c0,0-3.059,10.42,7.347,4.898c0,0,4.897,10.42,9.802,4.898l14.091-10.406
			c0,0,6.14-3.067,5.515-9.81c0,0,0.624-9.185,3.066-12.252C934.846,616.219,940.361,605.202,935.456,599.069z M257.634,598.742
			c-3.713-7.482-10.258-22.53-0.972-19.279l2.023,8.632C258.33,591.644,257.975,595.193,257.634,598.742z M272.583,464.292
			c0,0-5.508,37.366-5.508,46.566c0,9.192-2.448,17.767-2.448,23.275c0,1.604-1.044,10.35-2.442,22.445
			c-1.327-0.994-2.818-3.123-2.456-7.737c0.61-7.964,2.449-12.876,1.213-20.217c-1.213-7.353-1.213-10.42-4.897-12.266
			c-3.663-1.831-4.905-0.61,0-6.736c4.897-6.119,7.971-2.442,6.743-9.796c-1.235-7.353-0.61-9.185,0-18.995
			c0.611-9.795,1.228-6.119,0.611-12.251c-0.611-6.119,0.618-7.964,2.448-10.407c1.839-2.456,3.684-1.235,1.228-6.743
			c-2.448-5.523-6.133-2.456,0-9.192c0.802-0.88,1.399-1.569,1.867-2.101C270.568,441.279,274.57,446.007,272.583,464.292z
			 M515.056,501.531c-2.641-5.892-4.557-11.344-6.601-14.566c-4.287-6.744-9.185-25.725-12.258-32.468
			c-3.059-6.751-6.126-12.259-4.281-21.452c1.512-7.609,5.977-25.277,6.076-31.843c1.363,3.151,3.464,9.327,3.11,19.591
			c-0.61,17.774,5.516,22.672,7.964,33.085c2.449,10.413,0.625,13.48,3.074,20.209c2.449,6.743,3.67,17.163,2.449,20.23
			C514.417,494.73,514.609,497.342,515.056,501.531z"/>
		<path fill="#FFFFFF" d="M679.281,329.32c0-3.973,31.052-32.86,74.873-2.066c0,0,35.931-20.537,60.375-12.914
			c22.159,6.911,22.672,0.847,21.764,16.593c-1.187,20.576-4.198,34.042-7.119,43.975c-4.889,16.625-9.367,44.852,0.934,60.62
			c10.993,16.826,18.491,37.372,25.314,56.227c12.099,33.439,15.963,69.857,12.926,105.279c-1.499,17.489-4.815,34.685-9.699,51.51
			c-5.122,17.644-7.122,36.926-9.913,55.148c-5.147,33.601,2.059,22.051-3.088,43.052c-5.147,21.001-7.205,10.501-3.088,39.901
			c1.671,11.931,2.801,23.987,5.526,35.734c3.246,13.992,9.316,26.334,13.909,39.753c8.969,26.206,8.077,57.638,26.886,79.5
			c16.352,19.005,25.427,43.179,40.102,63.427c13.708,18.914,35.847,29.034,49.143,48.206c9.155,13.201,13.297,30.452,25.89,40.273
			c1.055,0.822,2.22,1.664,2.655,2.943c2.108,6.198-14.046,6.878-16.912,6.228c-9.264-2.1-6.176,1.05-25.734,1.05
			s-50.439,1.05-64.85,0c-14.411-1.05-14.411-4.2-29.851-1.05s-45.292-13.651-61.762-9.45c-16.47,4.2-33.969,3.15-60.732,8.4
			c-26.763,5.25-32.94,5.25-47.351,1.05c-14.411-4.2-14.411-1.05-33.969-4.2c-19.558-3.15-9.264-7.35-9.264-7.35
			s8.235-9.45,10.294-23.101c2.059-13.651,15.44-40.952,16.47-58.802c1.029-17.851,5.147-49.352,6.176-68.253
			c1.029-18.901,2.059-35.701,1.029-56.702s-2.059-56.702,2.059-87.154c4.117-30.451,10.294-33.601,6.176-61.953
			s-9.264-35.701-18.528-95.554c-9.264-59.852-14.411-85.053-6.176-114.455c8.235-29.401,7.206-42.002,14.411-65.103
			s17.054-25.518,11.907-45.469s-6.525-19.568-11.032-38.638C683.434,352.292,676.339,328.57,679.281,329.32z"/>
		<path fill="#FFFFFF" d="M710.175,105.091c3.626,3.415,13.064,0.236,15.672,4.306c2.603,4.064,1.586,4.715,0.019,7.875
			c-1.556,3.147-0.112,6.526,2.383,7.074c2.5,0.548,10.228-0.821,10.228-0.821l5.726,7.804l6.929-3.721
			c4.965,3.265,6.213,0.923,8.852,1.502c5.838,1.277,9.395-1.002,8.593-3.358c-0.792-2.366-6.001-10.498-6.001-10.498
			s-6.621-3.639-4.419-5.768c2.217-2.141,5.996-7.428,5.996-7.428c0.744-3.334-3.501-9.95-8.396-7.519
			c-4.901,2.422-6.067,1.731-7.326-2.486c-1.259-4.2-6.613-13.674-6.594-5.812c0.027,7.879,3.24,15.14-0.699,11.206
			c-3.951-3.921-7.004-5.072-9.463-4.696c-5.879,0.909,1.468,11.252-3.783,5.297c-5.249-5.96-14.457-5.786-13.33-2.926
			c1.111,2.864-8.241,1.698-2.668,8.161"/>
	</g>
	<path fill="#FFFFFF" d="M343.473,186.685c0,0,19.068,19.62,34.622,27.698c14.861,7.718,17.017,12.365,21.344,11.5
		c4.328-0.866,16.74-14.962,16.74-14.962l3.028-3.477c0,0,6.493,6.939,7.359,11.267c0.866,4.328,2.597,15.58,2.597,20.773
		c0,5.193-5.193,131.564-30.294,179.169C398.868,418.652,334.818,246.408,343.473,186.685z"/>
	<path fill="#262324" d="M414.218,329.164c0.998-9.977-4.49-34.421-5.487-44.897c-0.854-8.971-2.801-24.126-3.345-28.304
		l2.846-7.115l0.997-4.49c0,0-11.972-10.476-10.975-12.97l-7.982,15.465c0,0,3.991,5.487,4.988,8.979
		c0.136,0.477,0.442,0.814,0.834,1.073c-0.512,9.547-2.086,38.718-2.33,40.831c-1.497,12.97-1.996,40.906-3.492,46.892
		c-1.497,5.986-1.497,35.918-3.492,40.906c-1.996,4.989,0.997,24.444,0.997,24.444s14.966,21.451,15.465,19.954
		c0.499-1.496,11.474-29.931,11.973-34.421C415.715,391.022,413.221,339.141,414.218,329.164z"/>
</g>
</svg>
